<svg width="284" height="301" viewBox="0 0 284 301" fill="none" xmlns="http://www.w3.org/2000/svg">
<g filter="url(#filter0_d_13_16)">
<rect x="12.9783" y="11" width="200" height="280" rx="30" fill="white"/>
<rect x="11.9783" y="10" width="202" height="282" rx="31" stroke="#333333" stroke-width="2"/>
</g>
<g filter="url(#filter1_d_13_16)">
<path d="M25.9783 44C25.9783 32.9543 34.9326 24 45.9783 24H180.978C192.024 24 200.978 32.9543 200.978 44V259C200.978 270.046 192.024 279 180.978 279H45.9783C34.9326 279 25.9783 270.046 25.9783 259V44Z" fill="#333333"/>
</g>
<path d="M194.123 92.0959C212.089 116.589 190.478 162.978 145.855 195.707C101.232 228.437 50.494 235.113 32.5288 210.62C14.5636 186.126 36.1742 139.738 80.7973 107.008C125.42 74.2789 176.158 67.6023 194.123 92.0959Z" fill="#D5001F"/>
<path d="M59.5907 153.598L69.3524 146.113L92.3436 176.097C94.9251 179.463 96.3798 183.026 96.7077 186.784C97.0507 190.53 96.3285 194.211 94.5412 197.825C92.7423 201.423 89.9341 204.687 86.1166 207.614C82.284 210.552 78.3966 212.424 74.4541 213.227C70.5002 214.015 66.7586 213.758 63.2294 212.454C59.7001 211.151 56.6448 208.816 54.0633 205.449L31.0721 175.465L40.8338 167.98L63.1854 197.13C64.5338 198.889 66.1156 200.158 67.9308 200.938C69.761 201.706 71.6822 201.94 73.6943 201.638C75.7063 201.336 77.6517 200.465 79.5304 199.024C81.4241 197.572 82.7702 195.92 83.5687 194.066C84.3822 192.201 84.6478 190.291 84.3656 188.336C84.0984 186.369 83.2907 184.506 81.9423 182.748L59.5907 153.598ZM116.002 110.342L151.405 156.513L142.974 162.978L100.604 149.321L100.266 149.58L122.549 178.64L112.787 186.125L77.3838 139.954L85.9507 133.385L128.145 147.141L128.551 146.83L106.286 117.793L116.002 110.342ZM184.198 94.71C188.058 99.7449 190.388 104.76 191.188 109.756C192.002 114.74 191.486 119.42 189.638 123.796C187.795 128.145 184.836 131.881 180.763 135.005C176.66 138.151 172.263 140.042 167.573 140.68C162.882 141.317 158.236 140.595 153.634 138.515C149.032 136.436 144.807 132.886 140.957 127.866C137.097 122.831 134.759 117.821 133.945 112.837C133.13 107.853 133.645 103.187 135.489 98.8372C137.321 94.4727 140.289 90.7174 144.392 87.5713C148.465 84.4481 152.847 82.568 157.537 81.9309C162.231 81.2672 166.879 81.9753 171.481 84.0552C176.098 86.1235 180.337 89.6751 184.198 94.71ZM174.301 102.299C171.8 99.0375 169.202 96.6616 166.508 95.1713C163.829 93.6694 161.167 93.014 158.521 93.2051C155.875 93.3962 153.372 94.3964 151.013 96.2057C148.653 98.0151 147.038 100.173 146.167 102.678C145.296 105.184 145.23 107.931 145.97 110.919C146.726 113.896 148.354 117.016 150.854 120.277C153.355 123.538 155.945 125.92 158.624 127.422C161.318 128.912 163.988 129.562 166.634 129.371C169.28 129.18 171.783 128.179 174.142 126.37C176.502 124.561 178.117 122.403 178.988 119.898C179.859 117.392 179.917 114.651 179.162 111.674C178.422 108.685 176.801 105.56 174.301 102.299Z" fill="#FFD500"/>
<defs>
<filter id="filter0_d_13_16" x="6.97827" y="9" width="212" height="292" filterUnits="userSpaceOnUse" color-interpolation-filters="sRGB">
<feFlood flood-opacity="0" result="BackgroundImageFix"/>
<feColorMatrix in="SourceAlpha" type="matrix" values="0 0 0 0 0 0 0 0 0 0 0 0 0 0 0 0 0 0 127 0" result="hardAlpha"/>
<feOffset dy="4"/>
<feGaussianBlur stdDeviation="2"/>
<feComposite in2="hardAlpha" operator="out"/>
<feColorMatrix type="matrix" values="0 0 0 0 0 0 0 0 0 0 0 0 0 0 0 0 0 0 0.25 0"/>
<feBlend mode="normal" in2="BackgroundImageFix" result="effect1_dropShadow_13_16"/>
<feBlend mode="normal" in="SourceGraphic" in2="effect1_dropShadow_13_16" result="shape"/>
</filter>
<filter id="filter1_d_13_16" x="21.9783" y="24" width="183" height="263" filterUnits="userSpaceOnUse" color-interpolation-filters="sRGB">
<feFlood flood-opacity="0" result="BackgroundImageFix"/>
<feColorMatrix in="SourceAlpha" type="matrix" values="0 0 0 0 0 0 0 0 0 0 0 0 0 0 0 0 0 0 127 0" result="hardAlpha"/>
<feOffset dy="4"/>
<feGaussianBlur stdDeviation="2"/>
<feComposite in2="hardAlpha" operator="out"/>
<feColorMatrix type="matrix" values="0 0 0 0 0 0 0 0 0 0 0 0 0 0 0 0 0 0 0.25 0"/>
<feBlend mode="normal" in2="BackgroundImageFix" result="effect1_dropShadow_13_16"/>
<feBlend mode="normal" in="SourceGraphic" in2="effect1_dropShadow_13_16" result="shape"/>
</filter>
</defs>
</svg>
