<svg width="227" height="292" viewBox="0 0 227 292" fill="none" xmlns="http://www.w3.org/2000/svg">
<g filter="url(#filter0_d_2_1402)">
<rect x="12.9782" y="2" width="200" height="280" rx="30" fill="white"/>
<rect x="11.9782" y="1" width="202" height="282" rx="31" stroke="black" stroke-width="2"/>
</g>
<g filter="url(#filter1_d_2_1402)">
<path d="M25.9782 35C25.9782 23.9543 34.9325 15 45.9782 15H180.978C192.024 15 200.978 23.9543 200.978 35V250C200.978 261.046 192.024 270 180.978 270H45.9782C34.9325 270 25.9782 261.046 25.9782 250V35Z" fill="#5555FD"/>
</g>
<ellipse cx="113.326" cy="142.358" rx="100.201" ry="55" transform="rotate(-36.2587 113.326 142.358)" fill="white"/>
<path d="M86.4844 177V164.812L114.961 138.445C117.383 136.102 119.414 133.992 121.055 132.117C122.721 130.242 123.984 128.406 124.844 126.609C125.703 124.786 126.133 122.82 126.133 120.711C126.133 118.367 125.599 116.349 124.531 114.656C123.464 112.937 122.005 111.622 120.156 110.711C118.307 109.773 116.211 109.305 113.867 109.305C111.419 109.305 109.284 109.799 107.461 110.789C105.638 111.779 104.232 113.198 103.242 115.047C102.253 116.896 101.758 119.096 101.758 121.648H85.7031C85.7031 116.414 86.888 111.87 89.2578 108.016C91.6276 104.161 94.9479 101.18 99.2188 99.0703C103.49 96.9609 108.411 95.9062 113.984 95.9062C119.714 95.9062 124.701 96.9219 128.945 98.9531C133.216 100.958 136.536 103.745 138.906 107.312C141.276 110.88 142.461 114.969 142.461 119.578C142.461 122.599 141.862 125.581 140.664 128.523C139.492 131.466 137.396 134.734 134.375 138.328C131.354 141.896 127.096 146.18 121.602 151.18L109.922 162.625V163.172H143.516V177H86.4844Z" fill="#5555FD"/>
<path d="M34.9257 64V58.4602L47.8695 46.4751C48.9704 45.4098 49.8937 44.451 50.6394 43.5987C51.397 42.7464 51.9711 41.9119 52.3617 41.0952C52.7524 40.2666 52.9477 39.3729 52.9477 38.4141C52.9477 37.3487 52.705 36.4313 52.2197 35.6619C51.7344 34.8807 51.0715 34.2829 50.2311 33.8686C49.3906 33.4425 48.4377 33.2294 47.3724 33.2294C46.2597 33.2294 45.2891 33.4543 44.4605 33.9041C43.6319 34.3539 42.9927 34.9991 42.5428 35.8395C42.093 36.6799 41.8681 37.6802 41.8681 38.8402H34.5705C34.5705 36.4609 35.1091 34.3954 36.1863 32.6435C37.2635 30.8916 38.7727 29.5362 40.714 28.5774C42.6553 27.6186 44.8925 27.1392 47.4257 27.1392C50.0298 27.1392 52.2966 27.6009 54.2261 28.5241C56.1674 29.4356 57.6766 30.7022 58.7538 32.3239C59.831 33.9455 60.3695 35.804 60.3695 37.8991C60.3695 39.2723 60.0973 40.6276 59.5528 41.9652C59.0201 43.3028 58.0672 44.7884 56.6941 46.4219C55.321 48.0436 53.3856 49.9908 50.888 52.2635L45.5791 57.4659V57.7145H60.849V64H34.9257Z" fill="white"/>
<path d="M194.031 221V226.54L181.087 238.525C179.986 239.59 179.063 240.549 178.317 241.401C177.559 242.254 176.985 243.088 176.595 243.905C176.204 244.733 176.009 245.627 176.009 246.586C176.009 247.651 176.251 248.569 176.737 249.338C177.222 250.119 177.885 250.717 178.725 251.131C179.566 251.558 180.519 251.771 181.584 251.771C182.697 251.771 183.667 251.546 184.496 251.096C185.325 250.646 185.964 250.001 186.414 249.161C186.863 248.32 187.088 247.32 187.088 246.16H194.386C194.386 248.539 193.847 250.605 192.77 252.357C191.693 254.108 190.184 255.464 188.242 256.423C186.301 257.381 184.064 257.861 181.531 257.861C178.927 257.861 176.66 257.399 174.73 256.476C172.789 255.564 171.28 254.298 170.203 252.676C169.125 251.054 168.587 249.196 168.587 247.101C168.587 245.728 168.859 244.372 169.404 243.035C169.936 241.697 170.889 240.212 172.262 238.578C173.635 236.956 175.571 235.009 178.068 232.737L183.377 227.534V227.286H168.107V221H194.031Z" fill="white"/>
<defs>
<filter id="filter0_d_2_1402" x="6.97821" y="0" width="212" height="292" filterUnits="userSpaceOnUse" color-interpolation-filters="sRGB">
<feFlood flood-opacity="0" result="BackgroundImageFix"/>
<feColorMatrix in="SourceAlpha" type="matrix" values="0 0 0 0 0 0 0 0 0 0 0 0 0 0 0 0 0 0 127 0" result="hardAlpha"/>
<feOffset dy="4"/>
<feGaussianBlur stdDeviation="2"/>
<feComposite in2="hardAlpha" operator="out"/>
<feColorMatrix type="matrix" values="0 0 0 0 0 0 0 0 0 0 0 0 0 0 0 0 0 0 0.25 0"/>
<feBlend mode="normal" in2="BackgroundImageFix" result="effect1_dropShadow_2_1402"/>
<feBlend mode="normal" in="SourceGraphic" in2="effect1_dropShadow_2_1402" result="shape"/>
</filter>
<filter id="filter1_d_2_1402" x="21.9782" y="15" width="183" height="263" filterUnits="userSpaceOnUse" color-interpolation-filters="sRGB">
<feFlood flood-opacity="0" result="BackgroundImageFix"/>
<feColorMatrix in="SourceAlpha" type="matrix" values="0 0 0 0 0 0 0 0 0 0 0 0 0 0 0 0 0 0 127 0" result="hardAlpha"/>
<feOffset dy="4"/>
<feGaussianBlur stdDeviation="2"/>
<feComposite in2="hardAlpha" operator="out"/>
<feColorMatrix type="matrix" values="0 0 0 0 0 0 0 0 0 0 0 0 0 0 0 0 0 0 0.25 0"/>
<feBlend mode="normal" in2="BackgroundImageFix" result="effect1_dropShadow_2_1402"/>
<feBlend mode="normal" in="SourceGraphic" in2="effect1_dropShadow_2_1402" result="shape"/>
</filter>
</defs>
</svg>
