<svg width="227" height="292" viewBox="0 0 227 292" fill="none" xmlns="http://www.w3.org/2000/svg">
<g filter="url(#filter0_d_2_1392)">
<rect x="12.9782" y="2" width="200" height="280" rx="30" fill="white"/>
<rect x="11.9782" y="1" width="202" height="282" rx="31" stroke="black" stroke-width="2"/>
</g>
<g filter="url(#filter1_d_2_1392)">
<path d="M25.9782 35C25.9782 23.9543 34.9325 15 45.9782 15H180.978C192.024 15 200.978 23.9543 200.978 35V250C200.978 261.046 192.024 270 180.978 270H45.9782C34.9325 270 25.9782 261.046 25.9782 250V35Z" fill="#5555FD"/>
</g>
<ellipse cx="113.326" cy="142.358" rx="100.201" ry="55" transform="rotate(-36.2587 113.326 142.358)" fill="white"/>
<path d="M112.852 184.758C106.133 184.732 100.352 183.078 95.5078 179.797C90.6901 176.516 86.9792 171.763 84.375 165.539C81.7969 159.315 80.5208 151.828 80.5469 143.078C80.5469 134.354 81.8359 126.919 84.4141 120.773C87.0182 114.628 90.7292 109.953 95.5469 106.75C100.391 103.521 106.159 101.906 112.852 101.906C119.544 101.906 125.299 103.521 130.117 106.75C134.961 109.979 138.685 114.667 141.289 120.812C143.893 126.932 145.182 134.354 145.156 143.078C145.156 151.854 143.854 159.354 141.25 165.578C138.672 171.802 134.974 176.555 130.156 179.836C125.339 183.117 119.57 184.758 112.852 184.758ZM112.852 170.734C117.435 170.734 121.094 168.43 123.828 163.82C126.563 159.211 127.917 152.297 127.891 143.078C127.891 137.01 127.266 131.958 126.016 127.922C124.792 123.885 123.047 120.852 120.781 118.82C118.542 116.789 115.898 115.773 112.852 115.773C108.294 115.773 104.648 118.052 101.914 122.609C99.1797 127.167 97.7995 133.99 97.7734 143.078C97.7734 149.224 98.3854 154.354 99.6094 158.469C100.859 162.557 102.617 165.63 104.883 167.687C107.148 169.719 109.805 170.734 112.852 170.734Z" fill="#5555FD"/>
<path d="M49.1835 64.799C46.1295 64.7872 43.5016 64.0355 41.2999 62.544C39.1101 61.0526 37.4233 58.8923 36.2396 56.0632C35.0677 53.2341 34.4877 49.831 34.4995 45.8537C34.4995 41.8883 35.0855 38.5088 36.2573 35.7152C37.441 32.9216 39.1278 30.7969 41.3177 29.3409C43.5194 27.8731 46.1413 27.1392 49.1835 27.1392C52.2256 27.1392 54.8416 27.8731 57.0315 29.3409C59.2332 30.8087 60.9259 32.9394 62.1096 35.733C63.2933 38.5147 63.8793 41.8883 63.8674 45.8537C63.8674 49.8428 63.2756 53.2519 62.0918 56.081C60.92 58.91 59.2391 61.0703 57.0492 62.5618C54.8594 64.0533 52.2374 64.799 49.1835 64.799ZM49.1835 58.4247C51.2668 58.4247 52.9299 57.3771 54.1728 55.282C55.4157 53.1868 56.0312 50.044 56.0194 45.8537C56.0194 43.0956 55.7353 40.7992 55.1671 38.9645C54.6108 37.1297 53.8177 35.7507 52.7879 34.8274C51.7699 33.9041 50.5684 33.4425 49.1835 33.4425C47.112 33.4425 45.4548 34.4782 44.2119 36.5497C42.969 38.6212 42.3416 41.7225 42.3298 45.8537C42.3298 48.6473 42.6079 50.9792 43.1643 52.8494C43.7325 54.7079 44.5315 56.1046 45.5613 57.0398C46.5911 57.9631 47.7985 58.4247 49.1835 58.4247Z" fill="white"/>
<path d="M179.773 220.201C182.827 220.213 185.455 220.964 187.656 222.456C189.846 223.947 191.533 226.108 192.717 228.937C193.889 231.766 194.469 235.169 194.457 239.146C194.457 243.112 193.871 246.491 192.699 249.285C191.515 252.078 189.829 254.203 187.639 255.659C185.437 257.127 182.815 257.861 179.773 257.861C176.731 257.861 174.115 257.127 171.925 255.659C169.723 254.191 168.031 252.061 166.847 249.267C165.663 246.485 165.077 243.112 165.089 239.146C165.089 235.157 165.681 231.748 166.865 228.919C168.036 226.09 169.717 223.93 171.907 222.438C174.097 220.947 176.719 220.201 179.773 220.201ZM179.773 226.575C177.69 226.575 176.027 227.623 174.784 229.718C173.541 231.813 172.925 234.956 172.937 239.146C172.937 241.904 173.221 244.201 173.789 246.036C174.346 247.87 175.139 249.249 176.169 250.173C177.187 251.096 178.388 251.558 179.773 251.558C181.844 251.558 183.502 250.522 184.745 248.45C185.987 246.379 186.615 243.277 186.627 239.146C186.627 236.353 186.348 234.021 185.792 232.151C185.224 230.292 184.425 228.895 183.395 227.96C182.365 227.037 181.158 226.575 179.773 226.575Z" fill="white"/>
<defs>
<filter id="filter0_d_2_1392" x="6.97821" y="0" width="212" height="292" filterUnits="userSpaceOnUse" color-interpolation-filters="sRGB">
<feFlood flood-opacity="0" result="BackgroundImageFix"/>
<feColorMatrix in="SourceAlpha" type="matrix" values="0 0 0 0 0 0 0 0 0 0 0 0 0 0 0 0 0 0 127 0" result="hardAlpha"/>
<feOffset dy="4"/>
<feGaussianBlur stdDeviation="2"/>
<feComposite in2="hardAlpha" operator="out"/>
<feColorMatrix type="matrix" values="0 0 0 0 0 0 0 0 0 0 0 0 0 0 0 0 0 0 0.25 0"/>
<feBlend mode="normal" in2="BackgroundImageFix" result="effect1_dropShadow_2_1392"/>
<feBlend mode="normal" in="SourceGraphic" in2="effect1_dropShadow_2_1392" result="shape"/>
</filter>
<filter id="filter1_d_2_1392" x="21.9782" y="15" width="183" height="263" filterUnits="userSpaceOnUse" color-interpolation-filters="sRGB">
<feFlood flood-opacity="0" result="BackgroundImageFix"/>
<feColorMatrix in="SourceAlpha" type="matrix" values="0 0 0 0 0 0 0 0 0 0 0 0 0 0 0 0 0 0 127 0" result="hardAlpha"/>
<feOffset dy="4"/>
<feGaussianBlur stdDeviation="2"/>
<feComposite in2="hardAlpha" operator="out"/>
<feColorMatrix type="matrix" values="0 0 0 0 0 0 0 0 0 0 0 0 0 0 0 0 0 0 0.25 0"/>
<feBlend mode="normal" in2="BackgroundImageFix" result="effect1_dropShadow_2_1392"/>
<feBlend mode="normal" in="SourceGraphic" in2="effect1_dropShadow_2_1392" result="shape"/>
</filter>
</defs>
</svg>
