<svg width="228" height="292" viewBox="0 0 228 292" fill="none" xmlns="http://www.w3.org/2000/svg">
<g filter="url(#filter0_d_223_590)">
<rect x="13.9785" y="2" width="200" height="280" rx="30" fill="white"/>
<rect x="12.9785" y="1" width="202" height="282" rx="31" stroke="black" stroke-width="2"/>
</g>
<g filter="url(#filter1_d_223_590)">
<path d="M26.9785 35C26.9785 23.9543 35.9328 15 46.9785 15H181.979C193.024 15 201.979 23.9543 201.979 35V250C201.979 261.046 193.024 270 181.979 270H46.9785C35.9328 270 26.9785 261.046 26.9785 250V35Z" fill="black"/>
</g>
<ellipse cx="114.326" cy="142.358" rx="100.201" ry="55" transform="rotate(-36.2587 114.326 142.358)" fill="white"/>
<ellipse cx="114.326" cy="142.358" rx="100.201" ry="55" transform="rotate(-36.2587 114.326 142.358)" fill="white"/>
<ellipse cx="114.326" cy="142.358" rx="100.201" ry="55" transform="rotate(-36.2587 114.326 142.358)" fill="white"/>
<path d="M146.506 187.87C123.953 204.258 99.8603 214.119 79.1069 216.778C58.3953 219.432 40.7514 214.926 31.5116 202.204C22.2718 189.482 23.4422 171.305 32.3683 152.423C41.3125 133.504 58.1365 113.635 80.6897 97.2475C103.243 80.8601 127.335 70.9989 148.089 68.3397C168.8 65.686 186.445 70.1921 195.685 82.9143C204.924 95.6366 203.753 113.813 194.827 132.694C185.883 151.614 169.059 171.483 146.506 187.87Z" fill="black" stroke="white" stroke-width="2"/>
<path d="M115.184 141.855L75.627 217.961" stroke="white" stroke-width="2"/>
<path d="M154.278 67.2236L114.461 142.422" stroke="white" stroke-width="2"/>
<path d="M37.6429 145.852C38.6833 142.848 40.9895 138.954 44.1837 134.684C47.8395 129.797 52.5774 124.521 57.6665 119.69L57.6911 119.667L57.714 119.641L58.6665 118.622C63.5135 113.52 69.5403 108.38 74.4875 104.422C77.1217 102.315 79.4421 100.549 81.1034 99.3104C81.9341 98.691 82.5999 98.2031 83.0572 97.8711C83.2855 97.7054 83.4618 97.5783 83.5807 97.493C83.6403 97.4502 83.6862 97.4182 83.7163 97.3967C83.7217 97.3928 83.7263 97.3887 83.7307 97.3856C86.9234 95.4436 90.2536 92.9602 93.7763 90.6017C97.1279 88.3578 100.748 86.157 104.875 84.4071L105.707 84.0632L105.714 84.0609L106.182 83.8643C108.506 82.8618 110.572 81.609 112.552 80.5015C114.557 79.3803 116.509 78.3846 118.716 77.7806L119.16 77.665C120.156 77.4203 121.274 76.9909 122.298 76.6091C123.228 76.2623 124.086 75.9523 124.835 75.7724L125.15 75.704C125.646 75.6067 126.206 75.3582 126.636 75.1647C127.006 74.9978 127.303 74.8608 127.541 74.7684L127.76 74.6908C129.835 74.0673 131.875 73.3065 133.754 72.675C135.425 72.1128 137.003 71.6397 138.523 71.3782L139.17 71.2806C141.942 70.9146 144.473 70.55 146.696 70.3886L147.63 70.3327L147.74 70.3273L147.846 70.2988L148.308 70.1868C148.701 70.0999 149.187 70.011 149.642 69.9524C149.344 70.5282 148.938 71.3205 148.443 72.2987C147.398 74.3631 145.943 77.2631 144.219 80.7171C140.769 87.6262 136.235 96.7576 131.722 105.86C127.209 114.963 122.717 124.039 119.355 130.839C117.673 134.239 116.274 137.07 115.295 139.051C114.805 140.042 114.421 140.82 114.158 141.351C114.106 141.457 114.059 141.554 114.017 141.64L37.6429 145.852Z" fill="#FF5555" stroke="white" stroke-width="2"/>
<path d="M134.479 103.364L134.478 103.363L138.783 95.0953L138.79 95.0831L138.796 95.0704L141.273 89.9644L144.211 84.613L144.224 84.5882L144.236 84.5638L148.078 76.5481L151.658 70.1068L162.211 69.088L172.989 70.8854L179.979 72.8772L186.706 76.5982L191.47 80.7479L195.347 85.3115L197.688 90.0554L199.198 95.3444L199.2 95.351L199.203 95.3584L200.037 98.1291L200.018 101.333L200.018 101.37L200.204 107.349L199.511 113.68L197.938 119.387L195.905 125.366L194.337 128.893L194.319 128.935L194.305 128.978L193.653 130.895L193.045 131.945L116.341 141.39L134.479 103.364Z" fill="#5555FD" stroke="white" stroke-width="2"/>
<path d="M191.954 134.037L185.156 146.45L174.704 159.581L161.288 173.881L145.925 186.561L130.101 196.396L114.061 205.128L93.9604 212.062L80.4141 214.799L115.313 143.532L191.954 134.037Z" fill="#55AA55" stroke="white" stroke-width="2"/>
<path d="M77.9388 215.539L68.5734 215.804L63.3183 215.556L60.541 215.24L57.0922 214.845L52.3535 213.606L47.2804 211.975L44.3277 210.601L41.048 208.832L38.1962 206.79L35.7347 204.461L31.2023 198.745L29.8679 195.511L28.5145 192.231L27.8482 189.037L27.8418 189.009L27.834 188.98L26.8764 185.445L26.973 181.683L27.073 177.813L27.4736 174.375L28.5921 167.82L30.8649 160.371L36.7542 147.789L113.009 143.694L77.9388 215.539Z" fill="#FFAA00" stroke="white" stroke-width="2"/>
<path d="M59.3542 58.3297C54.3613 63.1051 49.0193 65.9873 44.4046 66.7657C39.8006 67.5422 35.8352 66.2297 33.7518 62.4537C31.6684 58.6777 31.9463 53.3068 33.9305 47.7819C35.9193 42.2443 39.6526 36.4465 44.6455 31.6709C49.6386 26.8953 54.9809 24.0126 59.5957 23.2343C64.1998 22.4577 68.1652 23.7702 70.2485 27.5462C72.3318 31.3223 72.054 36.6933 70.0698 42.2181C68.081 47.7558 64.3472 53.5541 59.3542 58.3297Z" fill="black" stroke="white"/>
<path d="M52.3485 44.7959L43.6431 66.843" stroke="white"/>
<path d="M60.953 23.1758L52.1904 44.96" stroke="white"/>
<path d="M35.613 45.6578C35.8695 44.8862 36.3121 43.9357 36.9035 42.895C37.7019 41.4903 38.7379 39.971 39.8519 38.5789L39.8618 38.5674L39.8709 38.5552L40.294 37.9679C41.3126 36.5984 42.5293 35.2367 43.5434 34.1687C44.1214 33.5601 44.6305 33.0495 44.995 32.6919C45.1771 32.5131 45.3233 32.3723 45.4234 32.2766C45.4734 32.2288 45.5123 32.1929 45.5382 32.1684C45.5512 32.1561 45.5608 32.1462 45.5673 32.1401C45.5703 32.1372 45.5727 32.1351 45.5742 32.1337L45.5764 32.1318C46.2772 31.5685 47.0193 30.844 47.7769 30.1762C48.4616 29.5729 49.1924 28.9851 50.0128 28.5042L50.3703 28.3051L50.3725 28.3032L50.5825 28.1841C51.0642 27.8978 51.4969 27.5539 51.8969 27.2594C52.3067 26.9577 52.6945 26.6967 53.1199 26.5279L53.3049 26.4623C53.5379 26.387 53.7969 26.2556 54.0172 26.1474C54.1947 26.0602 54.3505 25.986 54.4856 25.9368L54.614 25.8962C54.7493 25.8613 54.893 25.7763 54.983 25.7229L55.2077 25.5971C55.6675 25.4151 56.1272 25.1893 56.5319 25.0102C56.8457 24.8712 57.1374 24.7544 57.4144 24.6786L57.6872 24.6172C58.3901 24.495 59.0055 24.377 59.5306 24.3448L59.5337 24.3452C59.5144 24.3952 59.4931 24.4467 59.4724 24.5007C59.2422 25.0992 58.9222 25.9399 58.5426 26.9405C57.7833 28.9422 56.7849 31.5878 55.7918 34.2248C54.7986 36.8618 53.8104 39.4915 53.0703 41.4613C52.7003 42.4462 52.3926 43.2667 52.1772 43.8406C52.0769 44.1078 51.9967 44.3217 51.9396 44.4739L35.613 45.6578Z" fill="#FF5555" stroke="white"/>
<path d="M56.8136 33.6695L57.7541 31.2924L57.7564 31.2852L57.7596 31.2774L58.3047 29.7983L58.9464 28.262L58.9523 28.2479L58.9579 28.2329L59.7988 25.9217L60.5077 24.2414L62.6301 23.9717L64.9562 24.4817L66.4621 25.0469L67.9075 26.0998L68.9396 27.2832L69.774 28.5748L70.279 29.9217L70.6091 31.4406L70.6103 31.4466L70.7885 32.2259L70.784 33.1265L70.7846 33.1443L70.8253 34.8607L70.6746 36.6666L70.332 38.3028L69.8917 40.0071L69.5509 41.0153L69.5425 41.039L69.5364 41.0634L69.3998 41.5927L69.3519 41.7012L52.9382 44.3626L56.8136 33.6695Z" fill="#5555FD" stroke="white"/>
<path d="M68.8778 42.8603L67.5745 45.993L65.2947 49.7638L62.3551 53.8885L59.0009 57.533L55.5414 60.3627L52.0324 62.8775L47.6399 64.8721L45.0563 65.5593L52.5084 45.5294L68.8778 42.8603Z" fill="#55AA55" stroke="white"/>
<path d="M44.028 65.8754L42.1178 65.9467L40.9769 65.8758L40.3737 65.786L39.6304 65.6736L38.5993 65.3192L37.5024 64.8537L36.8769 64.4711L36.1654 63.9657L35.5548 63.3905L35.0272 62.7339L34.0567 61.1228L33.7712 60.2123L33.4792 59.28L33.3364 58.3799L33.3334 58.3639L33.3309 58.3488L33.1277 57.3593L33.1475 56.3072L33.1692 55.2014L33.2559 54.2184L33.4988 52.3491L33.9925 50.2205L35.2169 46.7749L51.5397 45.6202L44.028 65.8754Z" fill="#FFAA00" stroke="white"/>
<path d="M183.354 245.33C178.361 250.105 173.019 252.987 168.405 253.766C163.801 254.542 159.835 253.23 157.752 249.454C155.668 245.678 155.946 240.307 157.931 234.782C159.919 229.244 163.653 223.446 168.645 218.671C173.639 213.895 178.981 211.013 183.596 210.234C188.2 209.458 192.165 210.77 194.249 214.546C196.332 218.322 196.054 223.693 194.07 229.218C192.081 234.756 188.347 240.554 183.354 245.33Z" fill="black" stroke="white"/>
<path d="M176.349 231.796L167.643 253.843" stroke="white"/>
<path d="M184.953 210.176L176.19 231.96" stroke="white"/>
<path d="M159.613 232.658C159.869 231.886 160.312 230.936 160.904 229.895C161.702 228.49 162.738 226.971 163.852 225.579L163.862 225.567L163.871 225.555L164.294 224.968C165.313 223.598 166.529 222.237 167.543 221.169C168.121 220.56 168.631 220.05 168.995 219.692C169.177 219.513 169.323 219.372 169.423 219.277C169.473 219.229 169.512 219.193 169.538 219.168C169.551 219.156 169.561 219.146 169.567 219.14C169.57 219.137 169.573 219.135 169.574 219.134L169.576 219.132C170.277 218.569 171.019 217.844 171.777 217.176C172.462 216.573 173.192 215.985 174.013 215.504L174.37 215.305L174.372 215.303L174.583 215.184C175.064 214.898 175.497 214.554 175.897 214.259C176.307 213.958 176.695 213.697 177.12 213.528L177.305 213.462C177.538 213.387 177.797 213.256 178.017 213.147C178.195 213.06 178.35 212.986 178.486 212.937L178.614 212.896C178.749 212.861 178.893 212.776 178.983 212.723L179.208 212.597C179.667 212.415 180.127 212.189 180.532 212.01C180.846 211.871 181.137 211.754 181.414 211.679L181.687 211.617C182.39 211.495 183.005 211.377 183.531 211.345L183.534 211.345C183.514 211.395 183.493 211.447 183.472 211.501C183.242 212.099 182.922 212.94 182.543 213.94C181.783 215.942 180.785 218.588 179.792 221.225C178.799 223.862 177.81 226.491 177.07 228.461C176.7 229.446 176.393 230.267 176.177 230.841C176.077 231.108 175.997 231.322 175.94 231.474L159.613 232.658Z" fill="#FF5555" stroke="white"/>
<path d="M180.814 220.67L181.754 218.292L181.756 218.285L181.76 218.277L182.305 216.798L182.946 215.262L182.952 215.248L182.958 215.233L183.799 212.922L184.508 211.241L186.63 210.972L188.956 211.482L190.462 212.047L191.908 213.1L192.94 214.283L193.774 215.575L194.279 216.922L194.609 218.441L194.61 218.447L194.788 219.226L194.784 220.126L194.785 220.144L194.825 221.861L194.675 223.667L194.332 225.303L193.892 227.007L193.551 228.015L193.542 228.039L193.536 228.063L193.4 228.593L193.352 228.701L176.938 231.363L180.814 220.67Z" fill="#5555FD" stroke="white"/>
<path d="M192.878 229.86L191.575 232.993L189.295 236.764L186.355 240.889L183.001 244.533L179.541 247.363L176.032 249.877L171.64 251.872L169.056 252.559L176.508 232.529L192.878 229.86Z" fill="#55AA55" stroke="white"/>
<path d="M168.028 252.875L166.118 252.947L164.977 252.876L164.374 252.786L163.63 252.674L162.599 252.319L161.502 251.854L160.877 251.471L160.165 250.966L159.555 250.39L159.027 249.734L158.057 248.123L157.771 247.212L157.479 246.28L157.336 245.38L157.333 245.364L157.331 245.349L157.128 244.359L157.148 243.307L157.169 242.201L157.256 241.218L157.499 239.349L157.993 237.221L159.217 233.775L175.54 232.62L168.028 252.875Z" fill="#FFAA00" stroke="white"/>
<defs>
<filter id="filter0_d_223_590" x="7.97852" y="0" width="212" height="292" filterUnits="userSpaceOnUse" color-interpolation-filters="sRGB">
<feFlood flood-opacity="0" result="BackgroundImageFix"/>
<feColorMatrix in="SourceAlpha" type="matrix" values="0 0 0 0 0 0 0 0 0 0 0 0 0 0 0 0 0 0 127 0" result="hardAlpha"/>
<feOffset dy="4"/>
<feGaussianBlur stdDeviation="2"/>
<feComposite in2="hardAlpha" operator="out"/>
<feColorMatrix type="matrix" values="0 0 0 0 0 0 0 0 0 0 0 0 0 0 0 0 0 0 0.25 0"/>
<feBlend mode="normal" in2="BackgroundImageFix" result="effect1_dropShadow_223_590"/>
<feBlend mode="normal" in="SourceGraphic" in2="effect1_dropShadow_223_590" result="shape"/>
</filter>
<filter id="filter1_d_223_590" x="22.9785" y="15" width="183" height="263" filterUnits="userSpaceOnUse" color-interpolation-filters="sRGB">
<feFlood flood-opacity="0" result="BackgroundImageFix"/>
<feColorMatrix in="SourceAlpha" type="matrix" values="0 0 0 0 0 0 0 0 0 0 0 0 0 0 0 0 0 0 127 0" result="hardAlpha"/>
<feOffset dy="4"/>
<feGaussianBlur stdDeviation="2"/>
<feComposite in2="hardAlpha" operator="out"/>
<feColorMatrix type="matrix" values="0 0 0 0 0 0 0 0 0 0 0 0 0 0 0 0 0 0 0.25 0"/>
<feBlend mode="normal" in2="BackgroundImageFix" result="effect1_dropShadow_223_590"/>
<feBlend mode="normal" in="SourceGraphic" in2="effect1_dropShadow_223_590" result="shape"/>
</filter>
</defs>
</svg>
