<svg width="227" height="292" viewBox="0 0 227 292" fill="none" xmlns="http://www.w3.org/2000/svg">
<g filter="url(#filter0_d_2_417)">
<rect x="12.9782" y="2" width="200" height="280" rx="30" fill="white"/>
<rect x="11.9782" y="1" width="202" height="282" rx="31" stroke="black" stroke-width="2"/>
</g>
<g filter="url(#filter1_d_2_417)">
<path d="M25.9782 35C25.9782 23.9543 34.9325 15 45.9782 15H180.978C192.024 15 200.978 23.9543 200.978 35V250C200.978 261.046 192.024 270 180.978 270H45.9782C34.9325 270 25.9782 261.046 25.9782 250V35Z" fill="#55AA55"/>
</g>
<ellipse cx="113.326" cy="142.358" rx="100.201" ry="55" transform="rotate(-36.2587 113.326 142.358)" fill="white"/>
<path d="M115.328 184.094C109.313 184.094 103.961 183.117 99.2734 181.164C94.612 179.185 90.9531 176.49 88.2969 173.078C85.6406 169.667 84.3125 165.799 84.3125 161.477C84.3125 158.143 85.0677 155.083 86.5781 152.297C88.1146 149.484 90.1979 147.154 92.8281 145.305C95.4583 143.43 98.401 142.232 101.656 141.711V141.164C97.3854 140.305 93.9219 138.234 91.2656 134.953C88.6094 131.646 87.2813 127.805 87.2813 123.43C87.2813 119.289 88.4922 115.604 90.9141 112.375C93.3359 109.12 96.6563 106.568 100.875 104.719C105.12 102.844 109.938 101.906 115.328 101.906C120.719 101.906 125.523 102.844 129.742 104.719C133.987 106.594 137.32 109.159 139.742 112.414C142.164 115.643 143.388 119.315 143.414 123.43C143.388 127.831 142.034 131.672 139.352 134.953C136.669 138.234 133.232 140.305 129.039 141.164V141.711C132.242 142.232 135.146 143.43 137.75 145.305C140.38 147.154 142.464 149.484 144 152.297C145.563 155.083 146.357 158.143 146.383 161.477C146.357 165.799 145.016 169.667 142.359 173.078C139.703 176.49 136.031 179.185 131.344 181.164C126.682 183.117 121.344 184.094 115.328 184.094ZM115.328 171.672C118.01 171.672 120.354 171.19 122.359 170.227C124.365 169.237 125.927 167.883 127.047 166.164C128.193 164.419 128.766 162.414 128.766 160.148C128.766 157.831 128.18 155.786 127.008 154.016C125.836 152.219 124.247 150.813 122.242 149.797C120.237 148.755 117.932 148.234 115.328 148.234C112.75 148.234 110.445 148.755 108.414 149.797C106.383 150.813 104.781 152.219 103.609 154.016C102.464 155.786 101.891 157.831 101.891 160.148C101.891 162.414 102.451 164.419 103.57 166.164C104.69 167.883 106.266 169.237 108.297 170.227C110.328 171.19 112.672 171.672 115.328 171.672ZM115.328 135.93C117.568 135.93 119.56 135.474 121.305 134.562C123.049 133.651 124.417 132.388 125.406 130.773C126.396 129.159 126.891 127.297 126.891 125.187C126.891 123.104 126.396 121.281 125.406 119.719C124.417 118.13 123.063 116.893 121.344 116.008C119.625 115.096 117.62 114.641 115.328 114.641C113.063 114.641 111.057 115.096 109.313 116.008C107.568 116.893 106.201 118.13 105.211 119.719C104.247 121.281 103.766 123.104 103.766 125.187C103.766 127.297 104.26 129.159 105.25 130.773C106.24 132.388 107.607 133.651 109.352 134.562C111.096 135.474 113.089 135.93 115.328 135.93Z" fill="#55AA55"/>
<path d="M48.491 64.4972C45.7566 64.4972 43.3241 64.0533 41.1934 63.1655C39.0746 62.2659 37.4114 61.0407 36.2041 59.4901C34.9967 57.9394 34.393 56.1816 34.393 54.2166C34.393 52.7015 34.7363 51.3106 35.4228 50.044C36.1212 48.7656 37.0682 47.7062 38.2637 46.8658C39.4593 46.0135 40.7969 45.469 42.2765 45.2322V44.9837C40.3352 44.593 38.7609 43.652 37.5535 42.1605C36.3461 40.6572 35.7424 38.9112 35.7424 36.9226C35.7424 35.0405 36.2928 33.3655 37.3937 31.8977C38.4945 30.4181 40.0038 29.258 41.9214 28.4176C43.8508 27.5653 46.0407 27.1392 48.491 27.1392C50.9413 27.1392 53.1252 27.5653 55.0428 28.4176C56.9723 29.2699 58.4874 30.4358 59.5883 31.9155C60.6891 33.3833 61.2455 35.0523 61.2573 36.9226C61.2455 38.9231 60.63 40.669 59.4107 42.1605C58.1915 43.652 56.629 44.593 54.7232 44.9837V45.2322C56.1792 45.469 57.499 46.0135 58.6828 46.8658C59.8783 47.7062 60.8253 48.7656 61.5237 50.044C62.2339 51.3106 62.5949 52.7015 62.6068 54.2166C62.5949 56.1816 61.9853 57.9394 60.7779 59.4901C59.5705 61.0407 57.9015 62.2659 55.7708 63.1655C53.652 64.0533 51.2254 64.4972 48.491 64.4972ZM48.491 58.8509C49.7102 58.8509 50.7756 58.6319 51.687 58.1939C52.5985 57.7441 53.3087 57.1286 53.8177 56.3473C54.3385 55.5542 54.5989 54.6428 54.5989 53.6129C54.5989 52.5594 54.3326 51.6302 53.7999 50.8253C53.2673 50.0085 52.5452 49.3693 51.6338 48.9077C50.7223 48.4342 49.6747 48.1974 48.491 48.1974C47.3191 48.1974 46.2715 48.4342 45.3482 48.9077C44.4249 49.3693 43.697 50.0085 43.1643 50.8253C42.6435 51.6302 42.383 52.5594 42.383 53.6129C42.383 54.6428 42.6375 55.5542 43.1465 56.3473C43.6555 57.1286 44.3717 57.7441 45.295 58.1939C46.2183 58.6319 47.2836 58.8509 48.491 58.8509ZM48.491 42.6044C49.509 42.6044 50.4145 42.3973 51.2076 41.983C52.0007 41.5687 52.6222 40.9946 53.072 40.2607C53.5218 39.5268 53.7467 38.6804 53.7467 37.7216C53.7467 36.7746 53.5218 35.946 53.072 35.2358C52.6222 34.5137 52.0066 33.9515 51.2254 33.549C50.4441 33.1347 49.5327 32.9276 48.491 32.9276C47.4612 32.9276 46.5497 33.1347 45.7566 33.549C44.9635 33.9515 44.3421 34.5137 43.8923 35.2358C43.4543 35.946 43.2353 36.7746 43.2353 37.7216C43.2353 38.6804 43.4602 39.5268 43.91 40.2607C44.3598 40.9946 44.9813 41.5687 45.7744 41.983C46.5675 42.3973 47.473 42.6044 48.491 42.6044Z" fill="white"/>
<path d="M180.465 220.503C183.2 220.503 185.632 220.947 187.763 221.835C189.882 222.734 191.545 223.959 192.752 225.51C193.96 227.061 194.563 228.818 194.563 230.783C194.563 232.299 194.22 233.689 193.534 234.956C192.835 236.234 191.888 237.294 190.693 238.134C189.497 238.987 188.16 239.531 186.68 239.768V240.016C188.621 240.407 190.196 241.348 191.403 242.839C192.61 244.343 193.214 246.089 193.214 248.077C193.214 249.96 192.664 251.634 191.563 253.102C190.462 254.582 188.953 255.742 187.035 256.582C185.106 257.435 182.916 257.861 180.465 257.861C178.015 257.861 175.831 257.435 173.914 256.582C171.984 255.73 170.469 254.564 169.368 253.085C168.267 251.617 167.711 249.948 167.699 248.077C167.711 246.077 168.327 244.331 169.546 242.839C170.765 241.348 172.327 240.407 174.233 240.016V239.768C172.777 239.531 171.457 238.987 170.274 238.134C169.078 237.294 168.131 236.234 167.433 234.956C166.723 233.689 166.362 232.299 166.35 230.783C166.362 228.818 166.971 227.061 168.179 225.51C169.386 223.959 171.055 222.734 173.186 221.835C175.305 220.947 177.731 220.503 180.465 220.503ZM180.465 226.149C179.246 226.149 178.181 226.368 177.269 226.806C176.358 227.256 175.648 227.871 175.139 228.653C174.618 229.446 174.358 230.357 174.358 231.387C174.358 232.441 174.624 233.37 175.157 234.175C175.689 234.991 176.411 235.631 177.323 236.092C178.234 236.566 179.282 236.803 180.465 236.803C181.637 236.803 182.685 236.566 183.608 236.092C184.532 235.631 185.26 234.991 185.792 234.175C186.313 233.37 186.573 232.441 186.573 231.387C186.573 230.357 186.319 229.446 185.81 228.653C185.301 227.871 184.585 227.256 183.662 226.806C182.738 226.368 181.673 226.149 180.465 226.149ZM180.465 242.396C179.447 242.396 178.542 242.603 177.749 243.017C176.956 243.431 176.334 244.005 175.885 244.739C175.435 245.473 175.21 246.32 175.21 247.278C175.21 248.225 175.435 249.054 175.885 249.764C176.334 250.486 176.95 251.049 177.731 251.451C178.512 251.865 179.424 252.072 180.465 252.072C181.495 252.072 182.407 251.865 183.2 251.451C183.993 251.049 184.614 250.486 185.064 249.764C185.502 249.054 185.721 248.225 185.721 247.278C185.721 246.32 185.496 245.473 185.046 244.739C184.597 244.005 183.975 243.431 183.182 243.017C182.389 242.603 181.483 242.396 180.465 242.396Z" fill="white"/>
<defs>
<filter id="filter0_d_2_417" x="6.97821" y="0" width="212" height="292" filterUnits="userSpaceOnUse" color-interpolation-filters="sRGB">
<feFlood flood-opacity="0" result="BackgroundImageFix"/>
<feColorMatrix in="SourceAlpha" type="matrix" values="0 0 0 0 0 0 0 0 0 0 0 0 0 0 0 0 0 0 127 0" result="hardAlpha"/>
<feOffset dy="4"/>
<feGaussianBlur stdDeviation="2"/>
<feComposite in2="hardAlpha" operator="out"/>
<feColorMatrix type="matrix" values="0 0 0 0 0 0 0 0 0 0 0 0 0 0 0 0 0 0 0.25 0"/>
<feBlend mode="normal" in2="BackgroundImageFix" result="effect1_dropShadow_2_417"/>
<feBlend mode="normal" in="SourceGraphic" in2="effect1_dropShadow_2_417" result="shape"/>
</filter>
<filter id="filter1_d_2_417" x="21.9782" y="15" width="183" height="263" filterUnits="userSpaceOnUse" color-interpolation-filters="sRGB">
<feFlood flood-opacity="0" result="BackgroundImageFix"/>
<feColorMatrix in="SourceAlpha" type="matrix" values="0 0 0 0 0 0 0 0 0 0 0 0 0 0 0 0 0 0 127 0" result="hardAlpha"/>
<feOffset dy="4"/>
<feGaussianBlur stdDeviation="2"/>
<feComposite in2="hardAlpha" operator="out"/>
<feColorMatrix type="matrix" values="0 0 0 0 0 0 0 0 0 0 0 0 0 0 0 0 0 0 0.25 0"/>
<feBlend mode="normal" in2="BackgroundImageFix" result="effect1_dropShadow_2_417"/>
<feBlend mode="normal" in="SourceGraphic" in2="effect1_dropShadow_2_417" result="shape"/>
</filter>
</defs>
</svg>
