<svg width="227" height="292" viewBox="0 0 227 292" fill="none" xmlns="http://www.w3.org/2000/svg">
<g filter="url(#filter0_d_2_361)">
<rect x="12.9782" y="2" width="200" height="280" rx="30" fill="white"/>
<rect x="11.9782" y="1" width="202" height="282" rx="31" stroke="black" stroke-width="2"/>
</g>
<g filter="url(#filter1_d_2_361)">
<path d="M25.9782 35C25.9782 23.9543 34.9325 15 45.9782 15H180.978C192.024 15 200.978 23.9543 200.978 35V250C200.978 261.046 192.024 270 180.978 270H45.9782C34.9325 270 25.9782 261.046 25.9782 250V35Z" fill="#FF5555"/>
</g>
<ellipse cx="113.326" cy="142.358" rx="100.201" ry="55" transform="rotate(-36.2587 113.326 142.358)" fill="white"/>
<path d="M116.852 184.758C110.133 184.732 104.352 183.078 99.5078 179.797C94.6901 176.516 90.9792 171.763 88.375 165.539C85.7969 159.315 84.5208 151.828 84.5469 143.078C84.5469 134.354 85.8359 126.919 88.4141 120.773C91.0182 114.628 94.7292 109.953 99.5469 106.75C104.391 103.521 110.159 101.906 116.852 101.906C123.544 101.906 129.299 103.521 134.117 106.75C138.961 109.979 142.685 114.667 145.289 120.812C147.893 126.932 149.182 134.354 149.156 143.078C149.156 151.854 147.854 159.354 145.25 165.578C142.672 171.802 138.974 176.555 134.156 179.836C129.339 183.117 123.57 184.758 116.852 184.758ZM116.852 170.734C121.435 170.734 125.094 168.43 127.828 163.82C130.563 159.211 131.917 152.297 131.891 143.078C131.891 137.01 131.266 131.958 130.016 127.922C128.792 123.885 127.047 120.852 124.781 118.82C122.542 116.789 119.898 115.773 116.852 115.773C112.294 115.773 108.648 118.052 105.914 122.609C103.18 127.167 101.799 133.99 101.773 143.078C101.773 149.224 102.385 154.354 103.609 158.469C104.859 162.557 106.617 165.63 108.883 167.687C111.148 169.719 113.805 170.734 116.852 170.734Z" fill="#FF5555"/>
<path d="M48.6508 64.6925C45.727 64.6925 43.2176 63.9527 41.1224 62.473C39.0391 60.9815 37.4351 58.8331 36.3106 56.0277C35.1979 53.2105 34.6416 49.8191 34.6416 45.8537C34.6534 41.8883 35.2157 38.5147 36.3284 35.733C37.4529 32.9394 39.0568 30.8087 41.1401 29.3409C43.2353 27.8731 45.7389 27.1392 48.6508 27.1392C51.5627 27.1392 54.0663 27.8731 56.1614 29.3409C58.2566 30.8087 59.8605 32.9394 60.9732 35.733C62.0978 38.5265 62.66 41.9001 62.66 45.8537C62.66 49.831 62.0978 53.2282 60.9732 56.0455C59.8605 58.8509 58.2566 60.9934 56.1614 62.473C54.0781 63.9527 51.5746 64.6925 48.6508 64.6925ZM48.6508 59.1349C50.9235 59.1349 52.7168 58.0163 54.0308 55.7791C55.3565 53.5301 56.0194 50.2216 56.0194 45.8537C56.0194 42.9654 55.7176 40.5388 55.1139 38.5739C54.5102 36.6089 53.6579 35.1293 52.557 34.1349C51.4562 33.1288 50.1541 32.6257 48.6508 32.6257C46.3899 32.6257 44.6025 33.7502 43.2886 35.9993C41.9747 38.2365 41.3118 41.5213 41.2999 45.8537C41.2881 48.7538 41.5781 51.1922 42.17 53.169C42.7737 55.1458 43.6259 56.6373 44.7268 57.6435C45.8276 58.6378 47.1356 59.1349 48.6508 59.1349Z" fill="white"/>
<path d="M179.773 220.201C182.827 220.213 185.455 220.964 187.656 222.456C189.846 223.947 191.533 226.108 192.717 228.937C193.889 231.766 194.469 235.169 194.457 239.146C194.457 243.112 193.871 246.491 192.699 249.285C191.515 252.078 189.829 254.203 187.639 255.659C185.437 257.127 182.815 257.861 179.773 257.861C176.731 257.861 174.115 257.127 171.925 255.659C169.723 254.191 168.031 252.061 166.847 249.267C165.663 246.485 165.077 243.112 165.089 239.146C165.089 235.157 165.681 231.748 166.865 228.919C168.036 226.09 169.717 223.93 171.907 222.438C174.097 220.947 176.719 220.201 179.773 220.201ZM179.773 226.575C177.69 226.575 176.027 227.623 174.784 229.718C173.541 231.813 172.925 234.956 172.937 239.146C172.937 241.904 173.221 244.201 173.789 246.036C174.346 247.87 175.139 249.249 176.169 250.173C177.187 251.096 178.388 251.558 179.773 251.558C181.844 251.558 183.502 250.522 184.745 248.45C185.987 246.379 186.615 243.277 186.627 239.146C186.627 236.353 186.348 234.021 185.792 232.151C185.224 230.292 184.425 228.895 183.395 227.96C182.365 227.037 181.158 226.575 179.773 226.575Z" fill="white"/>
<defs>
<filter id="filter0_d_2_361" x="6.97821" y="0" width="212" height="292" filterUnits="userSpaceOnUse" color-interpolation-filters="sRGB">
<feFlood flood-opacity="0" result="BackgroundImageFix"/>
<feColorMatrix in="SourceAlpha" type="matrix" values="0 0 0 0 0 0 0 0 0 0 0 0 0 0 0 0 0 0 127 0" result="hardAlpha"/>
<feOffset dy="4"/>
<feGaussianBlur stdDeviation="2"/>
<feComposite in2="hardAlpha" operator="out"/>
<feColorMatrix type="matrix" values="0 0 0 0 0 0 0 0 0 0 0 0 0 0 0 0 0 0 0.25 0"/>
<feBlend mode="normal" in2="BackgroundImageFix" result="effect1_dropShadow_2_361"/>
<feBlend mode="normal" in="SourceGraphic" in2="effect1_dropShadow_2_361" result="shape"/>
</filter>
<filter id="filter1_d_2_361" x="21.9782" y="15" width="183" height="263" filterUnits="userSpaceOnUse" color-interpolation-filters="sRGB">
<feFlood flood-opacity="0" result="BackgroundImageFix"/>
<feColorMatrix in="SourceAlpha" type="matrix" values="0 0 0 0 0 0 0 0 0 0 0 0 0 0 0 0 0 0 127 0" result="hardAlpha"/>
<feOffset dy="4"/>
<feGaussianBlur stdDeviation="2"/>
<feComposite in2="hardAlpha" operator="out"/>
<feColorMatrix type="matrix" values="0 0 0 0 0 0 0 0 0 0 0 0 0 0 0 0 0 0 0.25 0"/>
<feBlend mode="normal" in2="BackgroundImageFix" result="effect1_dropShadow_2_361"/>
<feBlend mode="normal" in="SourceGraphic" in2="effect1_dropShadow_2_361" result="shape"/>
</filter>
</defs>
</svg>
