<svg width="227" height="292" viewBox="0 0 227 292" fill="none" xmlns="http://www.w3.org/2000/svg">
<g filter="url(#filter0_d_2_367)">
<rect x="12.9782" y="2" width="200" height="280" rx="30" fill="white"/>
<rect x="11.9782" y="1" width="202" height="282" rx="31" stroke="black" stroke-width="2"/>
</g>
<g filter="url(#filter1_d_2_367)">
<path d="M25.9782 35C25.9782 23.9543 34.9325 15 45.9782 15H180.978C192.024 15 200.978 23.9543 200.978 35V250C200.978 261.046 192.024 270 180.978 270H45.9782C34.9325 270 25.9782 261.046 25.9782 250V35Z" fill="#FF5555"/>
</g>
<ellipse cx="113.326" cy="142.358" rx="100.201" ry="55" transform="rotate(-36.2587 113.326 142.358)" fill="white"/>
<path d="M117.188 178.094C113.073 178.068 109.102 177.378 105.273 176.023C101.471 174.669 98.0599 172.469 95.0391 169.422C92.0182 166.375 89.6224 162.339 87.8516 157.312C86.1068 152.286 85.2344 146.115 85.2344 138.797C85.2604 132.078 86.0286 126.076 87.5391 120.789C89.0755 115.477 91.263 110.971 94.1016 107.273C96.9661 103.576 100.391 100.763 104.375 98.8359C108.359 96.8828 112.826 95.9062 117.773 95.9062C123.112 95.9062 127.826 96.9479 131.914 99.0313C136.003 101.089 139.284 103.888 141.758 107.43C144.258 110.971 145.768 114.943 146.289 119.344H129.609C128.958 116.557 127.591 114.37 125.508 112.781C123.424 111.193 120.846 110.398 117.773 110.398C112.565 110.398 108.607 112.664 105.898 117.195C103.216 121.727 101.849 127.885 101.797 135.672H102.344C103.542 133.302 105.156 131.284 107.188 129.617C109.245 127.924 111.576 126.635 114.18 125.75C116.81 124.839 119.583 124.383 122.5 124.383C127.24 124.383 131.458 125.503 135.156 127.742C138.854 129.956 141.771 133.003 143.906 136.883C146.042 140.763 147.109 145.203 147.109 150.203C147.109 155.62 145.846 160.437 143.32 164.656C140.82 168.875 137.318 172.182 132.813 174.578C128.333 176.948 123.125 178.12 117.188 178.094ZM117.109 164.812C119.714 164.812 122.044 164.187 124.102 162.938C126.159 161.687 127.773 159.995 128.945 157.859C130.117 155.724 130.703 153.328 130.703 150.672C130.703 148.016 130.117 145.633 128.945 143.523C127.799 141.414 126.211 139.734 124.18 138.484C122.148 137.234 119.831 136.609 117.227 136.609C115.273 136.609 113.464 136.974 111.797 137.703C110.156 138.432 108.711 139.448 107.461 140.75C106.237 142.052 105.273 143.562 104.57 145.281C103.867 146.974 103.516 148.784 103.516 150.711C103.516 153.289 104.102 155.646 105.273 157.781C106.471 159.917 108.086 161.622 110.117 162.898C112.174 164.174 114.505 164.812 117.109 164.812Z" fill="#FF5555"/>
<path d="M48.8816 64.4972C47.0114 64.4853 45.2062 64.1716 43.4661 63.5561C41.7379 62.9406 40.1873 61.9403 38.8141 60.5554C37.441 59.1705 36.352 57.3357 35.5471 55.0511C34.754 52.7666 34.3575 49.9612 34.3575 46.6349C34.3693 43.581 34.7185 40.8525 35.4051 38.4496C36.1034 36.0348 37.0978 33.987 38.388 32.3061C39.6901 30.6252 41.2467 29.3468 43.0578 28.4709C44.8688 27.5831 46.8989 27.1392 49.148 27.1392C51.5746 27.1392 53.7171 27.6127 55.5755 28.5597C57.4339 29.4948 58.9254 30.7673 60.0499 32.3771C61.1863 33.987 61.8729 35.7921 62.1096 37.7926H54.5279C54.232 36.526 53.6106 35.5317 52.6636 34.8097C51.7166 34.0876 50.5447 33.7266 49.148 33.7266C46.7805 33.7266 44.9813 34.7564 43.7502 36.8161C42.531 38.8757 41.9096 41.6752 41.8859 45.2145H42.1345C42.679 44.1373 43.4129 43.2199 44.3362 42.4624C45.2713 41.6929 46.3307 41.107 47.5144 40.7045C48.71 40.2902 49.9706 40.0831 51.2964 40.0831C53.4507 40.0831 55.3684 40.5921 57.0492 41.6101C58.7301 42.6162 60.0559 44.0012 61.0265 45.7649C61.9972 47.5286 62.4825 49.5469 62.4825 51.8196C62.4825 54.2817 61.9084 56.4716 60.7602 58.3892C59.6238 60.3068 58.0317 61.8101 55.9839 62.8991C53.9479 63.9763 51.5805 64.509 48.8816 64.4972ZM48.8461 58.4602C50.0298 58.4602 51.0892 58.1761 52.0244 57.608C52.9595 57.0398 53.6934 56.2704 54.2261 55.2997C54.7588 54.3291 55.0251 53.2401 55.0251 52.0327C55.0251 50.8253 54.7588 49.7422 54.2261 48.7834C53.7052 47.8246 52.9832 47.0611 52.0599 46.4929C51.1366 45.9247 50.0831 45.6406 48.8994 45.6406C48.0116 45.6406 47.1889 45.8063 46.4313 46.1378C45.6856 46.4692 45.0286 46.9309 44.4605 47.5227C43.9041 48.1146 43.4661 48.8011 43.1465 49.5824C42.8269 50.3518 42.6671 51.1745 42.6671 52.0504C42.6671 53.2223 42.9335 54.2936 43.4661 55.2642C44.0106 56.2348 44.7445 57.0102 45.6678 57.5902C46.603 58.1702 47.6624 58.4602 48.8461 58.4602Z" fill="white"/>
<path d="M180.075 220.503C181.945 220.515 183.75 220.828 185.49 221.444C187.219 222.059 188.769 223.06 190.142 224.445C191.515 225.83 192.604 227.664 193.409 229.949C194.202 232.233 194.599 235.039 194.599 238.365C194.587 241.419 194.238 244.147 193.551 246.55C192.853 248.965 191.859 251.013 190.568 252.694C189.266 254.375 187.71 255.653 185.899 256.529C184.088 257.417 182.058 257.861 179.808 257.861C177.382 257.861 175.239 257.387 173.381 256.44C171.522 255.505 170.031 254.233 168.906 252.623C167.77 251.013 167.084 249.208 166.847 247.207H174.428C174.724 248.474 175.346 249.468 176.293 250.19C177.24 250.912 178.412 251.273 179.808 251.273C182.176 251.273 183.975 250.244 185.206 248.184C186.425 246.124 187.047 243.325 187.071 239.786H186.822C186.277 240.863 185.544 241.78 184.62 242.538C183.685 243.307 182.626 243.893 181.442 244.295C180.246 244.71 178.986 244.917 177.66 244.917C175.506 244.917 173.588 244.408 171.907 243.39C170.226 242.384 168.901 240.999 167.93 239.235C166.959 237.471 166.474 235.453 166.474 233.18C166.474 230.718 167.048 228.528 168.196 226.611C169.333 224.693 170.925 223.19 172.973 222.101C175.009 221.024 177.376 220.491 180.075 220.503ZM180.11 226.54C178.927 226.54 177.867 226.824 176.932 227.392C175.997 227.96 175.263 228.73 174.73 229.7C174.198 230.671 173.931 231.76 173.931 232.967C173.931 234.175 174.198 235.258 174.73 236.217C175.251 237.175 175.973 237.939 176.897 238.507C177.82 239.075 178.873 239.359 180.057 239.359C180.945 239.359 181.768 239.194 182.525 238.862C183.271 238.531 183.928 238.069 184.496 237.477C185.052 236.885 185.49 236.199 185.81 235.418C186.129 234.648 186.289 233.826 186.289 232.95C186.289 231.778 186.023 230.706 185.49 229.736C184.946 228.765 184.212 227.99 183.289 227.41C182.353 226.83 181.294 226.54 180.11 226.54Z" fill="white"/>
<defs>
<filter id="filter0_d_2_367" x="6.97821" y="0" width="212" height="292" filterUnits="userSpaceOnUse" color-interpolation-filters="sRGB">
<feFlood flood-opacity="0" result="BackgroundImageFix"/>
<feColorMatrix in="SourceAlpha" type="matrix" values="0 0 0 0 0 0 0 0 0 0 0 0 0 0 0 0 0 0 127 0" result="hardAlpha"/>
<feOffset dy="4"/>
<feGaussianBlur stdDeviation="2"/>
<feComposite in2="hardAlpha" operator="out"/>
<feColorMatrix type="matrix" values="0 0 0 0 0 0 0 0 0 0 0 0 0 0 0 0 0 0 0.25 0"/>
<feBlend mode="normal" in2="BackgroundImageFix" result="effect1_dropShadow_2_367"/>
<feBlend mode="normal" in="SourceGraphic" in2="effect1_dropShadow_2_367" result="shape"/>
</filter>
<filter id="filter1_d_2_367" x="21.9782" y="15" width="183" height="263" filterUnits="userSpaceOnUse" color-interpolation-filters="sRGB">
<feFlood flood-opacity="0" result="BackgroundImageFix"/>
<feColorMatrix in="SourceAlpha" type="matrix" values="0 0 0 0 0 0 0 0 0 0 0 0 0 0 0 0 0 0 127 0" result="hardAlpha"/>
<feOffset dy="4"/>
<feGaussianBlur stdDeviation="2"/>
<feComposite in2="hardAlpha" operator="out"/>
<feColorMatrix type="matrix" values="0 0 0 0 0 0 0 0 0 0 0 0 0 0 0 0 0 0 0.25 0"/>
<feBlend mode="normal" in2="BackgroundImageFix" result="effect1_dropShadow_2_367"/>
<feBlend mode="normal" in="SourceGraphic" in2="effect1_dropShadow_2_367" result="shape"/>
</filter>
</defs>
</svg>
