<svg width="227" height="292" viewBox="0 0 227 292" fill="none" xmlns="http://www.w3.org/2000/svg">
<g filter="url(#filter0_d_2_366)">
<rect x="12.9782" y="2" width="200" height="280" rx="30" fill="white"/>
<rect x="11.9782" y="1" width="202" height="282" rx="31" stroke="black" stroke-width="2"/>
</g>
<g filter="url(#filter1_d_2_366)">
<path d="M25.9782 35C25.9782 23.9543 34.9325 15 45.9782 15H180.978C192.024 15 200.978 23.9543 200.978 35V250C200.978 261.046 192.024 270 180.978 270H45.9782C34.9325 270 25.9782 261.046 25.9782 250V35Z" fill="#FF5555"/>
</g>
<ellipse cx="113.326" cy="142.358" rx="100.201" ry="55" transform="rotate(-36.2587 113.326 142.358)" fill="white"/>
<path d="M114.703 184.094C109.182 184.094 104.26 183.078 99.9375 181.047C95.6406 179.016 92.2292 176.216 89.7031 172.648C87.1771 169.081 85.862 164.992 85.7578 160.383H102.164C102.346 163.482 103.648 165.995 106.07 167.922C108.492 169.849 111.37 170.812 114.703 170.812C117.359 170.812 119.703 170.227 121.734 169.055C123.792 167.857 125.393 166.203 126.539 164.094C127.711 161.958 128.297 159.51 128.297 156.75C128.297 153.937 127.698 151.464 126.5 149.328C125.328 147.193 123.701 145.526 121.617 144.328C119.534 143.13 117.151 142.518 114.469 142.492C112.125 142.492 109.846 142.974 107.633 143.937C105.445 144.901 103.74 146.216 102.516 147.883L87.4766 145.188L91.2656 103H140.172V116.828H105.211L103.141 136.867H103.609C105.016 134.888 107.138 133.247 109.977 131.945C112.815 130.643 115.992 129.992 119.508 129.992C124.326 129.992 128.622 131.125 132.398 133.391C136.174 135.656 139.156 138.768 141.344 142.727C143.531 146.659 144.612 151.19 144.586 156.32C144.612 161.711 143.362 166.503 140.836 170.695C138.336 174.862 134.833 178.143 130.328 180.539C125.849 182.909 120.641 184.094 114.703 184.094Z" fill="#FF5555"/>
<path d="M48.2069 64.4972C45.6974 64.4972 43.4602 64.0355 41.4953 63.1122C39.5421 62.1889 37.9915 60.9164 36.8433 59.2947C35.6951 57.6731 35.0973 55.8146 35.0499 53.7195H42.5073C42.5902 55.1281 43.182 56.2704 44.2829 57.1463C45.3838 58.0223 46.6918 58.4602 48.2069 58.4602C49.4143 58.4602 50.4796 58.1939 51.4029 57.6612C52.3381 57.1167 53.066 56.3651 53.5869 55.4062C54.1195 54.4356 54.3859 53.3229 54.3859 52.0682C54.3859 50.7898 54.1136 49.6652 53.5691 48.6946C53.0364 47.724 52.2966 46.9664 51.3497 46.4219C50.4027 45.8774 49.3196 45.5992 48.1004 45.5874C47.035 45.5874 45.9993 45.8063 44.9931 46.2443C43.9988 46.6823 43.2235 47.2801 42.6671 48.0376L35.8312 46.8125L37.5535 27.6364H59.7836V33.9219H43.8923L42.9512 43.0305H43.1643C43.8035 42.1309 44.7682 41.3852 46.0585 40.7933C47.3487 40.2015 48.7928 39.9055 50.3909 39.9055C52.5807 39.9055 54.5338 40.4205 56.2502 41.4503C57.9666 42.4801 59.322 43.8946 60.3163 45.6939C61.3106 47.4813 61.8018 49.541 61.79 51.8729C61.8018 54.3232 61.2337 56.5012 60.0855 58.407C58.9491 60.3009 57.357 61.7924 55.3092 62.8814C53.2732 63.9586 50.9058 64.4972 48.2069 64.4972Z" fill="white"/>
<path d="M180.75 220.503C183.259 220.503 185.496 220.964 187.461 221.888C189.414 222.811 190.965 224.084 192.113 225.705C193.261 227.327 193.859 229.185 193.906 231.281H186.449C186.366 229.872 185.774 228.73 184.674 227.854C183.573 226.978 182.265 226.54 180.75 226.54C179.542 226.54 178.477 226.806 177.553 227.339C176.618 227.883 175.89 228.635 175.37 229.594C174.837 230.564 174.571 231.677 174.571 232.932C174.571 234.21 174.843 235.335 175.387 236.305C175.92 237.276 176.66 238.034 177.607 238.578C178.554 239.123 179.637 239.401 180.856 239.413C181.921 239.413 182.957 239.194 183.963 238.756C184.958 238.318 185.733 237.72 186.289 236.962L193.125 238.188L191.403 257.364H169.173V251.078H185.064L186.005 241.969H185.792C185.153 242.869 184.188 243.615 182.898 244.207C181.608 244.799 180.164 245.094 178.566 245.094C176.376 245.094 174.423 244.58 172.706 243.55C170.99 242.52 169.634 241.105 168.64 239.306C167.646 237.519 167.155 235.459 167.166 233.127C167.155 230.677 167.723 228.499 168.871 226.593C170.007 224.699 171.599 223.208 173.647 222.119C175.683 221.041 178.051 220.503 180.75 220.503Z" fill="white"/>
<defs>
<filter id="filter0_d_2_366" x="6.97821" y="0" width="212" height="292" filterUnits="userSpaceOnUse" color-interpolation-filters="sRGB">
<feFlood flood-opacity="0" result="BackgroundImageFix"/>
<feColorMatrix in="SourceAlpha" type="matrix" values="0 0 0 0 0 0 0 0 0 0 0 0 0 0 0 0 0 0 127 0" result="hardAlpha"/>
<feOffset dy="4"/>
<feGaussianBlur stdDeviation="2"/>
<feComposite in2="hardAlpha" operator="out"/>
<feColorMatrix type="matrix" values="0 0 0 0 0 0 0 0 0 0 0 0 0 0 0 0 0 0 0.25 0"/>
<feBlend mode="normal" in2="BackgroundImageFix" result="effect1_dropShadow_2_366"/>
<feBlend mode="normal" in="SourceGraphic" in2="effect1_dropShadow_2_366" result="shape"/>
</filter>
<filter id="filter1_d_2_366" x="21.9782" y="15" width="183" height="263" filterUnits="userSpaceOnUse" color-interpolation-filters="sRGB">
<feFlood flood-opacity="0" result="BackgroundImageFix"/>
<feColorMatrix in="SourceAlpha" type="matrix" values="0 0 0 0 0 0 0 0 0 0 0 0 0 0 0 0 0 0 127 0" result="hardAlpha"/>
<feOffset dy="4"/>
<feGaussianBlur stdDeviation="2"/>
<feComposite in2="hardAlpha" operator="out"/>
<feColorMatrix type="matrix" values="0 0 0 0 0 0 0 0 0 0 0 0 0 0 0 0 0 0 0.25 0"/>
<feBlend mode="normal" in2="BackgroundImageFix" result="effect1_dropShadow_2_366"/>
<feBlend mode="normal" in="SourceGraphic" in2="effect1_dropShadow_2_366" result="shape"/>
</filter>
</defs>
</svg>
