<svg width="227" height="292" viewBox="0 0 227 292" fill="none" xmlns="http://www.w3.org/2000/svg">
<g filter="url(#filter0_d_13_297)">
<rect x="13" y="2" width="200" height="280" rx="30" fill="white"/>
<rect x="12" y="1" width="202" height="282" rx="31" stroke="black" stroke-width="2"/>
</g>
<g filter="url(#filter1_d_13_297)">
<path d="M26 35C26 23.9543 34.9543 15 46 15H181C192.046 15 201 23.9543 201 35V250C201 261.046 192.046 270 181 270H46C34.9543 270 26 261.046 26 250V35Z" fill="#FF5555"/>
</g>
<ellipse cx="113.326" cy="142.611" rx="100.201" ry="55" transform="rotate(-36.2587 113.326 142.611)" fill="white"/>
<circle cx="113" cy="142" r="45" fill="#FF5555"/>
<circle cx="113" cy="143" r="30" fill="white"/>
<path d="M131.497 109L145.64 123.142L96.1421 172.64L82 158.497L131.497 109Z" fill="#FF5555"/>
<circle cx="52" cy="41" r="20" fill="white"/>
<circle cx="52" cy="41" r="13.3333" fill="#FF5555"/>
<rect x="36.6666" y="51.2369" width="33.3333" height="6.66667" transform="rotate(-45 36.6666 51.2369)" fill="white"/>
<circle cx="173" cy="240" r="20" transform="rotate(-180 173 240)" fill="white"/>
<circle cx="173" cy="240" r="13.3333" transform="rotate(-180 173 240)" fill="#FF5555"/>
<rect x="188.333" y="229.763" width="33.3333" height="6.66667" transform="rotate(135 188.333 229.763)" fill="white"/>
<defs>
<filter id="filter0_d_13_297" x="7" y="0" width="212" height="292" filterUnits="userSpaceOnUse" color-interpolation-filters="sRGB">
<feFlood flood-opacity="0" result="BackgroundImageFix"/>
<feColorMatrix in="SourceAlpha" type="matrix" values="0 0 0 0 0 0 0 0 0 0 0 0 0 0 0 0 0 0 127 0" result="hardAlpha"/>
<feOffset dy="4"/>
<feGaussianBlur stdDeviation="2"/>
<feComposite in2="hardAlpha" operator="out"/>
<feColorMatrix type="matrix" values="0 0 0 0 0 0 0 0 0 0 0 0 0 0 0 0 0 0 0.25 0"/>
<feBlend mode="normal" in2="BackgroundImageFix" result="effect1_dropShadow_13_297"/>
<feBlend mode="normal" in="SourceGraphic" in2="effect1_dropShadow_13_297" result="shape"/>
</filter>
<filter id="filter1_d_13_297" x="22" y="15" width="183" height="263" filterUnits="userSpaceOnUse" color-interpolation-filters="sRGB">
<feFlood flood-opacity="0" result="BackgroundImageFix"/>
<feColorMatrix in="SourceAlpha" type="matrix" values="0 0 0 0 0 0 0 0 0 0 0 0 0 0 0 0 0 0 127 0" result="hardAlpha"/>
<feOffset dy="4"/>
<feGaussianBlur stdDeviation="2"/>
<feComposite in2="hardAlpha" operator="out"/>
<feColorMatrix type="matrix" values="0 0 0 0 0 0 0 0 0 0 0 0 0 0 0 0 0 0 0.25 0"/>
<feBlend mode="normal" in2="BackgroundImageFix" result="effect1_dropShadow_13_297"/>
<feBlend mode="normal" in="SourceGraphic" in2="effect1_dropShadow_13_297" result="shape"/>
</filter>
</defs>
</svg>
