<svg width="227" height="292" viewBox="0 0 227 292" fill="none" xmlns="http://www.w3.org/2000/svg">
<g filter="url(#filter0_d_2_2542)">
<rect x="12.9781" y="2" width="200" height="280" rx="30" fill="white"/>
<rect x="11.9781" y="1" width="202" height="282" rx="31" stroke="black" stroke-width="2"/>
</g>
<g filter="url(#filter1_d_2_2542)">
<path d="M25.9781 35C25.9781 23.9543 34.9325 15 45.9781 15H180.978C192.024 15 200.978 23.9543 200.978 35V250C200.978 261.046 192.024 270 180.978 270H45.9781C34.9325 270 25.9781 261.046 25.9781 250V35Z" fill="#FFAA00"/>
</g>
<ellipse cx="113.326" cy="142.358" rx="100.201" ry="55" transform="rotate(-36.2587 113.326 142.358)" fill="white"/>
<path d="M90.6484 183L123.813 117.375V116.828H85.1797V103H141.313V117.023L108.109 183H90.6484Z" fill="#FFAA00"/>
<path d="M36.3638 64L51.4384 34.1705V33.9219H33.878V27.6364H59.3929V34.0107L44.3006 64H36.3638Z" fill="white"/>
<path d="M192.592 221L177.518 250.83V251.078H195.078V257.364H169.563V250.989L184.656 221H192.592Z" fill="white"/>
<defs>
<filter id="filter0_d_2_2542" x="6.97815" y="0" width="212" height="292" filterUnits="userSpaceOnUse" color-interpolation-filters="sRGB">
<feFlood flood-opacity="0" result="BackgroundImageFix"/>
<feColorMatrix in="SourceAlpha" type="matrix" values="0 0 0 0 0 0 0 0 0 0 0 0 0 0 0 0 0 0 127 0" result="hardAlpha"/>
<feOffset dy="4"/>
<feGaussianBlur stdDeviation="2"/>
<feComposite in2="hardAlpha" operator="out"/>
<feColorMatrix type="matrix" values="0 0 0 0 0 0 0 0 0 0 0 0 0 0 0 0 0 0 0.25 0"/>
<feBlend mode="normal" in2="BackgroundImageFix" result="effect1_dropShadow_2_2542"/>
<feBlend mode="normal" in="SourceGraphic" in2="effect1_dropShadow_2_2542" result="shape"/>
</filter>
<filter id="filter1_d_2_2542" x="21.9781" y="15" width="183" height="263" filterUnits="userSpaceOnUse" color-interpolation-filters="sRGB">
<feFlood flood-opacity="0" result="BackgroundImageFix"/>
<feColorMatrix in="SourceAlpha" type="matrix" values="0 0 0 0 0 0 0 0 0 0 0 0 0 0 0 0 0 0 127 0" result="hardAlpha"/>
<feOffset dy="4"/>
<feGaussianBlur stdDeviation="2"/>
<feComposite in2="hardAlpha" operator="out"/>
<feColorMatrix type="matrix" values="0 0 0 0 0 0 0 0 0 0 0 0 0 0 0 0 0 0 0.25 0"/>
<feBlend mode="normal" in2="BackgroundImageFix" result="effect1_dropShadow_2_2542"/>
<feBlend mode="normal" in="SourceGraphic" in2="effect1_dropShadow_2_2542" result="shape"/>
</filter>
</defs>
</svg>
