<svg width="227" height="292" viewBox="0 0 227 292" fill="none" xmlns="http://www.w3.org/2000/svg">
<g filter="url(#filter0_d_2_1411)">
<rect x="12.9782" y="2" width="200" height="280" rx="30" fill="white"/>
<rect x="11.9782" y="1" width="202" height="282" rx="31" stroke="black" stroke-width="2"/>
</g>
<g filter="url(#filter1_d_2_1411)">
<path d="M25.9782 35C25.9782 23.9543 34.9325 15 45.9782 15H180.978C192.024 15 200.978 23.9543 200.978 35V250C200.978 261.046 192.024 270 180.978 270H45.9782C34.9325 270 25.9782 261.046 25.9782 250V35Z" fill="#5555FD"/>
</g>
<ellipse cx="113.326" cy="142.358" rx="100.201" ry="55" transform="rotate(-36.2587 113.326 142.358)" fill="white"/>
<path d="M112.281 184.094C107.698 184.094 103.57 183.182 99.8984 181.359C96.2266 179.536 93.2839 177.036 91.0703 173.859C88.8568 170.682 87.6458 167.062 87.4375 163H96.8125C97.1771 166.62 98.8177 169.615 101.734 171.984C104.677 174.328 108.193 175.5 112.281 175.5C115.563 175.5 118.479 174.732 121.031 173.195C123.609 171.659 125.628 169.549 127.086 166.867C128.57 164.159 129.313 161.099 129.313 157.687C129.313 154.198 128.544 151.086 127.008 148.352C125.497 145.591 123.414 143.417 120.758 141.828C118.102 140.24 115.068 139.432 111.656 139.406C109.208 139.38 106.695 139.758 104.117 140.539C101.539 141.294 99.4167 142.271 97.75 143.469L88.6875 142.375L93.5313 103H135.094V111.594H101.656L98.8438 135.187H99.3125C100.953 133.885 103.01 132.805 105.484 131.945C107.958 131.086 110.536 130.656 113.219 130.656C118.115 130.656 122.477 131.828 126.305 134.172C130.159 136.49 133.18 139.667 135.367 143.703C137.581 147.74 138.687 152.349 138.687 157.531C138.687 162.635 137.542 167.193 135.25 171.203C132.984 175.187 129.859 178.339 125.875 180.656C121.891 182.948 117.359 184.094 112.281 184.094Z" fill="#5555FD"/>
<path d="M48.2069 64.4972C45.6974 64.4972 43.4602 64.0355 41.4953 63.1122C39.5421 62.1889 37.9915 60.9164 36.8433 59.2947C35.6951 57.6731 35.0973 55.8146 35.0499 53.7195H42.5073C42.5902 55.1281 43.182 56.2704 44.2829 57.1463C45.3838 58.0223 46.6918 58.4602 48.2069 58.4602C49.4143 58.4602 50.4796 58.1939 51.4029 57.6612C52.3381 57.1167 53.066 56.3651 53.5869 55.4062C54.1195 54.4356 54.3859 53.3229 54.3859 52.0682C54.3859 50.7898 54.1136 49.6652 53.5691 48.6946C53.0364 47.724 52.2966 46.9664 51.3497 46.4219C50.4027 45.8774 49.3196 45.5992 48.1004 45.5874C47.035 45.5874 45.9993 45.8063 44.9931 46.2443C43.9988 46.6823 43.2235 47.2801 42.6671 48.0376L35.8312 46.8125L37.5535 27.6364H59.7836V33.9219H43.8923L42.9512 43.0305H43.1643C43.8035 42.1309 44.7682 41.3852 46.0585 40.7933C47.3487 40.2015 48.7928 39.9055 50.3909 39.9055C52.5807 39.9055 54.5338 40.4205 56.2502 41.4503C57.9666 42.4801 59.322 43.8946 60.3163 45.6939C61.3106 47.4813 61.8018 49.541 61.79 51.8729C61.8018 54.3232 61.2337 56.5012 60.0855 58.407C58.9491 60.3009 57.357 61.7924 55.3092 62.8814C53.2732 63.9586 50.9058 64.4972 48.2069 64.4972Z" fill="white"/>
<path d="M180.75 220.503C183.259 220.503 185.496 220.964 187.461 221.888C189.414 222.811 190.965 224.084 192.113 225.705C193.261 227.327 193.859 229.185 193.906 231.281H186.449C186.366 229.872 185.774 228.73 184.674 227.854C183.573 226.978 182.265 226.54 180.75 226.54C179.542 226.54 178.477 226.806 177.553 227.339C176.618 227.883 175.89 228.635 175.37 229.594C174.837 230.564 174.571 231.677 174.571 232.932C174.571 234.21 174.843 235.335 175.387 236.305C175.92 237.276 176.66 238.034 177.607 238.578C178.554 239.123 179.637 239.401 180.856 239.413C181.921 239.413 182.957 239.194 183.963 238.756C184.958 238.318 185.733 237.72 186.289 236.962L193.125 238.188L191.403 257.364H169.173V251.078H185.064L186.005 241.969H185.792C185.153 242.869 184.188 243.615 182.898 244.207C181.608 244.799 180.164 245.094 178.566 245.094C176.376 245.094 174.423 244.58 172.706 243.55C170.99 242.52 169.634 241.105 168.64 239.306C167.646 237.519 167.155 235.459 167.166 233.127C167.155 230.677 167.723 228.499 168.871 226.593C170.007 224.699 171.599 223.208 173.647 222.119C175.683 221.041 178.051 220.503 180.75 220.503Z" fill="white"/>
<defs>
<filter id="filter0_d_2_1411" x="6.97821" y="0" width="212" height="292" filterUnits="userSpaceOnUse" color-interpolation-filters="sRGB">
<feFlood flood-opacity="0" result="BackgroundImageFix"/>
<feColorMatrix in="SourceAlpha" type="matrix" values="0 0 0 0 0 0 0 0 0 0 0 0 0 0 0 0 0 0 127 0" result="hardAlpha"/>
<feOffset dy="4"/>
<feGaussianBlur stdDeviation="2"/>
<feComposite in2="hardAlpha" operator="out"/>
<feColorMatrix type="matrix" values="0 0 0 0 0 0 0 0 0 0 0 0 0 0 0 0 0 0 0.25 0"/>
<feBlend mode="normal" in2="BackgroundImageFix" result="effect1_dropShadow_2_1411"/>
<feBlend mode="normal" in="SourceGraphic" in2="effect1_dropShadow_2_1411" result="shape"/>
</filter>
<filter id="filter1_d_2_1411" x="21.9782" y="15" width="183" height="263" filterUnits="userSpaceOnUse" color-interpolation-filters="sRGB">
<feFlood flood-opacity="0" result="BackgroundImageFix"/>
<feColorMatrix in="SourceAlpha" type="matrix" values="0 0 0 0 0 0 0 0 0 0 0 0 0 0 0 0 0 0 127 0" result="hardAlpha"/>
<feOffset dy="4"/>
<feGaussianBlur stdDeviation="2"/>
<feComposite in2="hardAlpha" operator="out"/>
<feColorMatrix type="matrix" values="0 0 0 0 0 0 0 0 0 0 0 0 0 0 0 0 0 0 0.25 0"/>
<feBlend mode="normal" in2="BackgroundImageFix" result="effect1_dropShadow_2_1411"/>
<feBlend mode="normal" in="SourceGraphic" in2="effect1_dropShadow_2_1411" result="shape"/>
</filter>
</defs>
</svg>
