<svg width="227" height="292" viewBox="0 0 227 292" fill="none" xmlns="http://www.w3.org/2000/svg">
<g filter="url(#filter0_d_2_453)">
<rect x="12.9782" y="2" width="200" height="280" rx="30" fill="white"/>
<rect x="11.9782" y="1" width="202" height="282" rx="31" stroke="black" stroke-width="2"/>
</g>
<g filter="url(#filter1_d_2_453)">
<path d="M25.9782 35C25.9782 23.9543 34.9325 15 45.9782 15H180.978C192.024 15 200.978 23.9543 200.978 35V250C200.978 261.046 192.024 270 180.978 270H45.9782C34.9325 270 25.9782 261.046 25.9782 250V35Z" fill="#55AA55"/>
</g>
<ellipse cx="113.326" cy="142.358" rx="100.201" ry="55" transform="rotate(-36.2587 113.326 142.358)" fill="white"/>
<path d="M114.055 184.094C108.221 184.094 103.026 183.091 98.4688 181.086C93.9375 179.055 90.3568 176.268 87.7266 172.727C85.1224 169.159 83.7813 165.044 83.7031 160.383H100.734C100.839 162.336 101.477 164.055 102.648 165.539C103.846 166.997 105.435 168.13 107.414 168.938C109.393 169.745 111.62 170.148 114.094 170.148C116.672 170.148 118.951 169.693 120.93 168.781C122.909 167.87 124.458 166.607 125.578 164.992C126.698 163.378 127.258 161.516 127.258 159.406C127.258 157.271 126.659 155.383 125.461 153.742C124.289 152.076 122.596 150.773 120.383 149.836C118.195 148.898 115.591 148.43 112.57 148.43H105.109V136.008H112.57C115.122 136.008 117.375 135.565 119.328 134.68C121.307 133.794 122.844 132.57 123.938 131.008C125.031 129.419 125.578 127.57 125.578 125.461C125.578 123.456 125.096 121.698 124.133 120.187C123.195 118.651 121.867 117.453 120.148 116.594C118.456 115.734 116.477 115.305 114.211 115.305C111.919 115.305 109.823 115.721 107.922 116.555C106.021 117.362 104.497 118.521 103.352 120.031C102.206 121.542 101.594 123.312 101.516 125.344H85.3047C85.3828 120.734 86.6979 116.672 89.25 113.156C91.8021 109.641 95.2396 106.893 99.5625 104.914C103.911 102.909 108.82 101.906 114.289 101.906C119.81 101.906 124.641 102.909 128.781 104.914C132.922 106.919 136.138 109.628 138.43 113.039C140.747 116.424 141.893 120.227 141.867 124.445C141.893 128.924 140.5 132.661 137.687 135.656C134.901 138.651 131.268 140.552 126.789 141.359V141.984C132.674 142.74 137.154 144.784 140.227 148.117C143.326 151.424 144.862 155.565 144.836 160.539C144.862 165.096 143.547 169.146 140.891 172.688C138.26 176.229 134.628 179.016 129.992 181.047C125.357 183.078 120.044 184.094 114.055 184.094Z" fill="#55AA55"/>
<path d="M48.3667 64.4972C45.7152 64.4972 43.3537 64.0414 41.2822 63.13C39.2225 62.2067 37.5949 60.9401 36.3994 59.3303C35.2157 57.7086 34.6061 55.8383 34.5705 53.7195H42.312C42.3594 54.6072 42.6494 55.3885 43.182 56.0632C43.7266 56.7261 44.4486 57.241 45.3482 57.608C46.2479 57.9749 47.2599 58.1584 48.3845 58.1584C49.5563 58.1584 50.5921 57.9512 51.4917 57.5369C52.3913 57.1226 53.0956 56.5485 53.6046 55.8146C54.1136 55.0807 54.3681 54.2344 54.3681 53.2756C54.3681 52.3049 54.0959 51.4467 53.5514 50.701C53.0187 49.9434 52.2493 49.3516 51.2431 48.9254C50.2488 48.4993 49.0651 48.2862 47.692 48.2862H44.3007V42.6399H47.692C48.852 42.6399 49.8759 42.4387 50.7637 42.0362C51.6633 41.6338 52.3617 41.0774 52.8589 40.3672C53.3561 39.6451 53.6046 38.8047 53.6046 37.8459C53.6046 36.9344 53.3856 36.1354 52.9477 35.4489C52.5215 34.7505 51.9178 34.206 51.1366 33.8153C50.3672 33.4247 49.4676 33.2294 48.4377 33.2294C47.3961 33.2294 46.4432 33.4188 45.5791 33.7976C44.715 34.1645 44.0225 34.6913 43.5016 35.3778C42.9808 36.0644 42.7026 36.8693 42.6671 37.7926H35.2985C35.334 35.6974 35.9318 33.8509 37.0918 32.2528C38.2519 30.6548 39.8144 29.406 41.7793 28.5064C43.7561 27.5949 45.9874 27.1392 48.4732 27.1392C50.9827 27.1392 53.1785 27.5949 55.0606 28.5064C56.9427 29.4178 58.4046 30.6489 59.4463 32.1996C60.4998 33.7384 61.0206 35.4666 61.0088 37.3842C61.0206 39.4202 60.3873 41.1188 59.1089 42.4801C57.8423 43.8414 56.191 44.7055 54.1551 45.0724V45.3565C56.8302 45.6998 58.8662 46.629 60.263 48.1442C61.6716 49.6475 62.37 51.5296 62.3582 53.7905C62.37 55.862 61.7722 57.7027 60.5649 59.3125C59.3693 60.9223 57.718 62.1889 55.611 63.1122C53.504 64.0355 51.0892 64.4972 48.3667 64.4972Z" fill="white"/>
<path d="M180.59 220.503C183.241 220.503 185.603 220.959 187.674 221.87C189.734 222.793 191.361 224.06 192.557 225.67C193.741 227.291 194.35 229.162 194.386 231.281H186.644C186.597 230.393 186.307 229.612 185.774 228.937C185.23 228.274 184.508 227.759 183.608 227.392C182.709 227.025 181.696 226.842 180.572 226.842C179.4 226.842 178.364 227.049 177.465 227.463C176.565 227.877 175.861 228.451 175.352 229.185C174.843 229.919 174.588 230.766 174.588 231.724C174.588 232.695 174.861 233.553 175.405 234.299C175.938 235.057 176.707 235.648 177.713 236.075C178.708 236.501 179.891 236.714 181.264 236.714H184.656V242.36H181.264C180.104 242.36 179.08 242.561 178.193 242.964C177.293 243.366 176.595 243.923 176.098 244.633C175.6 245.355 175.352 246.195 175.352 247.154C175.352 248.066 175.571 248.865 176.009 249.551C176.435 250.25 177.039 250.794 177.82 251.185C178.589 251.575 179.489 251.771 180.519 251.771C181.56 251.771 182.513 251.581 183.377 251.202C184.241 250.835 184.934 250.309 185.455 249.622C185.976 248.936 186.254 248.131 186.289 247.207H193.658C193.622 249.303 193.025 251.149 191.865 252.747C190.705 254.345 189.142 255.594 187.177 256.494C185.2 257.405 182.969 257.861 180.483 257.861C177.974 257.861 175.778 257.405 173.896 256.494C172.014 255.582 170.552 254.351 169.51 252.8C168.457 251.262 167.936 249.533 167.948 247.616C167.936 245.58 168.569 243.881 169.848 242.52C171.114 241.159 172.765 240.295 174.801 239.928V239.643C172.126 239.3 170.09 238.371 168.693 236.856C167.285 235.353 166.586 233.47 166.598 231.21C166.586 229.138 167.184 227.297 168.392 225.688C169.587 224.078 171.238 222.811 173.345 221.888C175.452 220.964 177.867 220.503 180.59 220.503Z" fill="white"/>
<defs>
<filter id="filter0_d_2_453" x="6.97821" y="0" width="212" height="292" filterUnits="userSpaceOnUse" color-interpolation-filters="sRGB">
<feFlood flood-opacity="0" result="BackgroundImageFix"/>
<feColorMatrix in="SourceAlpha" type="matrix" values="0 0 0 0 0 0 0 0 0 0 0 0 0 0 0 0 0 0 127 0" result="hardAlpha"/>
<feOffset dy="4"/>
<feGaussianBlur stdDeviation="2"/>
<feComposite in2="hardAlpha" operator="out"/>
<feColorMatrix type="matrix" values="0 0 0 0 0 0 0 0 0 0 0 0 0 0 0 0 0 0 0.25 0"/>
<feBlend mode="normal" in2="BackgroundImageFix" result="effect1_dropShadow_2_453"/>
<feBlend mode="normal" in="SourceGraphic" in2="effect1_dropShadow_2_453" result="shape"/>
</filter>
<filter id="filter1_d_2_453" x="21.9782" y="15" width="183" height="263" filterUnits="userSpaceOnUse" color-interpolation-filters="sRGB">
<feFlood flood-opacity="0" result="BackgroundImageFix"/>
<feColorMatrix in="SourceAlpha" type="matrix" values="0 0 0 0 0 0 0 0 0 0 0 0 0 0 0 0 0 0 127 0" result="hardAlpha"/>
<feOffset dy="4"/>
<feGaussianBlur stdDeviation="2"/>
<feComposite in2="hardAlpha" operator="out"/>
<feColorMatrix type="matrix" values="0 0 0 0 0 0 0 0 0 0 0 0 0 0 0 0 0 0 0.25 0"/>
<feBlend mode="normal" in2="BackgroundImageFix" result="effect1_dropShadow_2_453"/>
<feBlend mode="normal" in="SourceGraphic" in2="effect1_dropShadow_2_453" result="shape"/>
</filter>
</defs>
</svg>
