<svg width="227" height="292" viewBox="0 0 227 292" fill="none" xmlns="http://www.w3.org/2000/svg">
<g filter="url(#filter0_d_2_380)">
<rect x="12.9782" y="2" width="200" height="280" rx="30" fill="white"/>
<rect x="11.9782" y="1" width="202" height="282" rx="31" stroke="black" stroke-width="2"/>
</g>
<g filter="url(#filter1_d_2_380)">
<path d="M25.9782 35C25.9782 23.9543 34.9325 15 45.9782 15H180.978C192.024 15 200.978 23.9543 200.978 35V250C200.978 261.046 192.024 270 180.978 270H45.9782C34.9325 270 25.9782 261.046 25.9782 250V35Z" fill="#55AA55"/>
</g>
<ellipse cx="113.326" cy="142.358" rx="100.201" ry="55" transform="rotate(-36.2587 113.326 142.358)" fill="white"/>
<path d="M109.852 183.758C103.133 183.732 97.3516 182.078 92.5078 178.797C87.6901 175.516 83.9792 170.763 81.375 164.539C78.7969 158.315 77.5208 150.828 77.5469 142.078C77.5469 133.354 78.8359 125.919 81.4141 119.773C84.0182 113.628 87.7292 108.953 92.5469 105.75C97.3906 102.521 103.159 100.906 109.852 100.906C116.544 100.906 122.299 102.521 127.117 105.75C131.961 108.979 135.685 113.667 138.289 119.812C140.893 125.932 142.182 133.354 142.156 142.078C142.156 150.854 140.854 158.354 138.25 164.578C135.672 170.802 131.974 175.555 127.156 178.836C122.339 182.117 116.57 183.758 109.852 183.758ZM109.852 169.734C114.435 169.734 118.094 167.43 120.828 162.82C123.563 158.211 124.917 151.297 124.891 142.078C124.891 136.01 124.266 130.958 123.016 126.922C121.792 122.885 120.047 119.852 117.781 117.82C115.542 115.789 112.898 114.773 109.852 114.773C105.294 114.773 101.648 117.052 98.9141 121.609C96.1797 126.167 94.7995 132.99 94.7734 142.078C94.7734 148.224 95.3854 153.354 96.6094 157.469C97.8594 161.557 99.6172 164.63 101.883 166.687C104.148 168.719 106.805 169.734 109.852 169.734Z" fill="#55AA55"/>
<path d="M49.1835 64.799C46.1295 64.7872 43.5016 64.0355 41.2999 62.544C39.1101 61.0526 37.4233 58.8923 36.2396 56.0632C35.0677 53.2341 34.4877 49.831 34.4995 45.8537C34.4995 41.8883 35.0855 38.5088 36.2573 35.7152C37.441 32.9216 39.1278 30.7969 41.3177 29.3409C43.5194 27.8731 46.1413 27.1392 49.1835 27.1392C52.2256 27.1392 54.8416 27.8731 57.0315 29.3409C59.2332 30.8087 60.9259 32.9394 62.1096 35.733C63.2933 38.5147 63.8793 41.8883 63.8674 45.8537C63.8674 49.8428 63.2756 53.2519 62.0918 56.081C60.92 58.91 59.2391 61.0703 57.0492 62.5618C54.8594 64.0533 52.2374 64.799 49.1835 64.799ZM49.1835 58.4247C51.2668 58.4247 52.9299 57.3771 54.1728 55.282C55.4157 53.1868 56.0312 50.044 56.0194 45.8537C56.0194 43.0956 55.7353 40.7992 55.1671 38.9645C54.6108 37.1297 53.8177 35.7507 52.7879 34.8274C51.7699 33.9041 50.5684 33.4425 49.1835 33.4425C47.112 33.4425 45.4548 34.4782 44.2119 36.5497C42.969 38.6212 42.3416 41.7225 42.3298 45.8537C42.3298 48.6473 42.6079 50.9792 43.1643 52.8494C43.7325 54.7079 44.5315 56.1046 45.5613 57.0398C46.5911 57.9631 47.7985 58.4247 49.1835 58.4247Z" fill="white"/>
<path d="M179.773 220.201C182.827 220.213 185.455 220.964 187.656 222.456C189.846 223.947 191.533 226.108 192.717 228.937C193.889 231.766 194.469 235.169 194.457 239.146C194.457 243.112 193.871 246.491 192.699 249.285C191.515 252.078 189.829 254.203 187.639 255.659C185.437 257.127 182.815 257.861 179.773 257.861C176.731 257.861 174.115 257.127 171.925 255.659C169.723 254.191 168.031 252.061 166.847 249.267C165.663 246.485 165.077 243.112 165.089 239.146C165.089 235.157 165.681 231.748 166.865 228.919C168.036 226.09 169.717 223.93 171.907 222.438C174.097 220.947 176.719 220.201 179.773 220.201ZM179.773 226.575C177.69 226.575 176.027 227.623 174.784 229.718C173.541 231.813 172.925 234.956 172.937 239.146C172.937 241.904 173.221 244.201 173.789 246.036C174.346 247.87 175.139 249.249 176.169 250.173C177.187 251.096 178.388 251.558 179.773 251.558C181.844 251.558 183.502 250.522 184.745 248.45C185.987 246.379 186.615 243.277 186.627 239.146C186.627 236.353 186.348 234.021 185.792 232.151C185.224 230.292 184.425 228.895 183.395 227.96C182.365 227.037 181.158 226.575 179.773 226.575Z" fill="white"/>
<defs>
<filter id="filter0_d_2_380" x="6.97821" y="0" width="212" height="292" filterUnits="userSpaceOnUse" color-interpolation-filters="sRGB">
<feFlood flood-opacity="0" result="BackgroundImageFix"/>
<feColorMatrix in="SourceAlpha" type="matrix" values="0 0 0 0 0 0 0 0 0 0 0 0 0 0 0 0 0 0 127 0" result="hardAlpha"/>
<feOffset dy="4"/>
<feGaussianBlur stdDeviation="2"/>
<feComposite in2="hardAlpha" operator="out"/>
<feColorMatrix type="matrix" values="0 0 0 0 0 0 0 0 0 0 0 0 0 0 0 0 0 0 0.25 0"/>
<feBlend mode="normal" in2="BackgroundImageFix" result="effect1_dropShadow_2_380"/>
<feBlend mode="normal" in="SourceGraphic" in2="effect1_dropShadow_2_380" result="shape"/>
</filter>
<filter id="filter1_d_2_380" x="21.9782" y="15" width="183" height="263" filterUnits="userSpaceOnUse" color-interpolation-filters="sRGB">
<feFlood flood-opacity="0" result="BackgroundImageFix"/>
<feColorMatrix in="SourceAlpha" type="matrix" values="0 0 0 0 0 0 0 0 0 0 0 0 0 0 0 0 0 0 127 0" result="hardAlpha"/>
<feOffset dy="4"/>
<feGaussianBlur stdDeviation="2"/>
<feComposite in2="hardAlpha" operator="out"/>
<feColorMatrix type="matrix" values="0 0 0 0 0 0 0 0 0 0 0 0 0 0 0 0 0 0 0.25 0"/>
<feBlend mode="normal" in2="BackgroundImageFix" result="effect1_dropShadow_2_380"/>
<feBlend mode="normal" in="SourceGraphic" in2="effect1_dropShadow_2_380" result="shape"/>
</filter>
</defs>
</svg>
