<svg width="227" height="292" viewBox="0 0 227 292" fill="none" xmlns="http://www.w3.org/2000/svg">
<g filter="url(#filter0_d_2_2524)">
<rect x="12.9783" y="2" width="200" height="280" rx="30" fill="white"/>
<rect x="11.9783" y="1" width="202" height="282" rx="31" stroke="black" stroke-width="2"/>
</g>
<g filter="url(#filter1_d_2_2524)">
<path d="M25.9783 35C25.9783 23.9543 34.9326 15 45.9783 15H180.978C192.024 15 200.978 23.9543 200.978 35V250C200.978 261.046 192.024 270 180.978 270H45.9783C34.9326 270 25.9783 261.046 25.9783 250V35Z" fill="#FFAA00"/>
</g>
<ellipse cx="113.326" cy="142.358" rx="100.201" ry="55" transform="rotate(-36.2587 113.326 142.358)" fill="white"/>
<path d="M113.43 101.906C117.544 101.906 121.503 102.596 125.305 103.977C129.133 105.357 132.544 107.557 135.539 110.578C138.56 113.599 140.943 117.609 142.688 122.609C144.458 127.583 145.357 133.69 145.383 140.93C145.383 147.727 144.615 153.794 143.078 159.133C141.568 164.445 139.393 168.964 136.555 172.688C133.716 176.411 130.292 179.25 126.281 181.203C122.271 183.13 117.792 184.094 112.844 184.094C107.505 184.094 102.792 183.065 98.7031 181.008C94.6146 178.924 91.3203 176.099 88.8203 172.531C86.3464 168.937 84.849 164.901 84.3281 160.422H101.008C101.659 163.339 103.026 165.604 105.109 167.219C107.193 168.807 109.771 169.602 112.844 169.602C118.052 169.602 122.01 167.336 124.719 162.805C127.427 158.247 128.794 152.01 128.82 144.094H128.273C127.076 146.437 125.461 148.456 123.43 150.148C121.398 151.815 119.068 153.104 116.438 154.016C113.833 154.927 111.06 155.383 108.117 155.383C103.404 155.383 99.1979 154.276 95.5 152.062C91.8021 149.849 88.8854 146.802 86.75 142.922C84.6146 139.042 83.5469 134.615 83.5469 129.641C83.5208 124.276 84.7578 119.497 87.2578 115.305C89.7578 111.112 93.2474 107.831 97.7266 105.461C102.232 103.065 107.466 101.88 113.43 101.906ZM113.547 115.187C110.917 115.187 108.573 115.812 106.516 117.063C104.484 118.312 102.87 119.992 101.672 122.102C100.5 124.211 99.9271 126.568 99.9531 129.172C99.9531 131.802 100.526 134.172 101.672 136.281C102.844 138.365 104.432 140.031 106.438 141.281C108.469 142.505 110.786 143.117 113.391 143.117C115.344 143.117 117.154 142.753 118.82 142.023C120.487 141.294 121.932 140.292 123.156 139.016C124.406 137.714 125.383 136.216 126.086 134.523C126.789 132.831 127.141 131.034 127.141 129.133C127.115 126.607 126.516 124.289 125.344 122.18C124.172 120.07 122.557 118.378 120.5 117.102C118.443 115.826 116.125 115.187 113.547 115.187Z" fill="#FFAA00"/>
<path d="M48.0827 27.1392C49.9529 27.1392 51.7522 27.4529 53.4804 28.0803C55.2205 28.7076 56.7711 29.7079 58.1324 31.081C59.5055 32.4541 60.5886 34.277 61.3817 36.5497C62.1866 38.8106 62.595 41.5864 62.6068 44.8771C62.6068 47.9666 62.2576 50.7247 61.5592 53.1513C60.8727 55.5661 59.8843 57.6198 58.594 59.3125C57.3038 61.0052 55.7472 62.2955 53.9243 63.1832C52.1014 64.0592 50.0654 64.4972 47.8163 64.4972C45.3897 64.4972 43.2472 64.0296 41.3888 63.0945C39.5304 62.1475 38.033 60.8632 36.8966 59.2415C35.7721 57.608 35.0914 55.7732 34.8547 53.7372H42.4364C42.7323 55.063 43.3537 56.0928 44.3007 56.8267C45.2477 57.5488 46.4196 57.9098 47.8163 57.9098C50.1838 57.9098 51.983 56.88 53.2141 54.8203C54.4451 52.7488 55.0666 49.9138 55.0784 46.3153H54.8298C54.2853 47.3807 53.5514 48.2981 52.6281 49.0675C51.7048 49.825 50.6454 50.411 49.4499 50.8253C48.2662 51.2396 47.0055 51.4467 45.6679 51.4467C43.5254 51.4467 41.6137 50.9437 39.9328 49.9375C38.2519 48.9313 36.9262 47.5464 35.9555 45.7827C34.9849 44.0189 34.4996 42.0066 34.4996 39.7457C34.4877 37.3073 35.05 35.1352 36.1864 33.2294C37.3227 31.3236 38.9089 29.8321 40.9449 28.755C42.9927 27.666 45.372 27.1274 48.0827 27.1392ZM48.1359 33.1761C46.9404 33.1761 45.8751 33.4602 44.9399 34.0284C44.0166 34.5966 43.2827 35.3601 42.7382 36.3189C42.2055 37.2777 41.9451 38.349 41.957 39.5327C41.957 40.7282 42.2174 41.8054 42.7382 42.7642C43.2709 43.7112 43.993 44.4687 44.9044 45.0369C45.8277 45.5933 46.8812 45.8714 48.0649 45.8714C48.9527 45.8714 49.7754 45.7057 50.533 45.3743C51.2905 45.0428 51.9475 44.5871 52.5038 44.0071C53.072 43.4152 53.5159 42.7346 53.8355 41.9652C54.1551 41.1958 54.3149 40.379 54.3149 39.5149C54.3031 38.3667 54.0308 37.3132 53.4982 36.3544C52.9655 35.3956 52.2316 34.6262 51.2965 34.0462C50.3613 33.4661 49.3078 33.1761 48.1359 33.1761Z" fill="white"/>
<path d="M180.874 257.861C179.004 257.861 177.204 257.547 175.476 256.92C173.736 256.292 172.185 255.292 170.824 253.919C169.451 252.546 168.368 250.723 167.575 248.45C166.77 246.189 166.362 243.414 166.35 240.123C166.35 237.033 166.699 234.275 167.397 231.849C168.084 229.434 169.072 227.38 170.363 225.688C171.653 223.995 173.209 222.705 175.032 221.817C176.855 220.941 178.891 220.503 181.14 220.503C183.567 220.503 185.709 220.97 187.568 221.906C189.426 222.853 190.924 224.137 192.06 225.759C193.184 227.392 193.865 229.227 194.102 231.263H186.52C186.224 229.937 185.603 228.907 184.656 228.173C183.709 227.451 182.537 227.09 181.14 227.09C178.773 227.09 176.974 228.12 175.742 230.18C174.511 232.251 173.89 235.086 173.878 238.685H174.127C174.671 237.619 175.405 236.702 176.328 235.933C177.252 235.175 178.311 234.589 179.507 234.175C180.69 233.76 181.951 233.553 183.289 233.553C185.431 233.553 187.343 234.056 189.024 235.063C190.705 236.069 192.03 237.454 193.001 239.217C193.972 240.981 194.457 242.993 194.457 245.254C194.469 247.693 193.907 249.865 192.77 251.771C191.634 253.676 190.048 255.168 188.012 256.245C185.964 257.334 183.585 257.873 180.874 257.861ZM180.821 251.824C182.016 251.824 183.081 251.54 184.017 250.972C184.94 250.403 185.674 249.64 186.218 248.681C186.751 247.722 187.011 246.651 187 245.467C187 244.272 186.739 243.195 186.218 242.236C185.686 241.289 184.964 240.531 184.052 239.963C183.129 239.407 182.075 239.129 180.892 239.129C180.004 239.129 179.181 239.294 178.424 239.626C177.666 239.957 177.009 240.413 176.453 240.993C175.885 241.585 175.441 242.265 175.121 243.035C174.801 243.804 174.642 244.621 174.642 245.485C174.653 246.633 174.926 247.687 175.458 248.646C175.991 249.604 176.725 250.374 177.66 250.954C178.595 251.534 179.649 251.824 180.821 251.824Z" fill="white"/>
<defs>
<filter id="filter0_d_2_2524" x="6.97827" y="0" width="212" height="292" filterUnits="userSpaceOnUse" color-interpolation-filters="sRGB">
<feFlood flood-opacity="0" result="BackgroundImageFix"/>
<feColorMatrix in="SourceAlpha" type="matrix" values="0 0 0 0 0 0 0 0 0 0 0 0 0 0 0 0 0 0 127 0" result="hardAlpha"/>
<feOffset dy="4"/>
<feGaussianBlur stdDeviation="2"/>
<feComposite in2="hardAlpha" operator="out"/>
<feColorMatrix type="matrix" values="0 0 0 0 0 0 0 0 0 0 0 0 0 0 0 0 0 0 0.25 0"/>
<feBlend mode="normal" in2="BackgroundImageFix" result="effect1_dropShadow_2_2524"/>
<feBlend mode="normal" in="SourceGraphic" in2="effect1_dropShadow_2_2524" result="shape"/>
</filter>
<filter id="filter1_d_2_2524" x="21.9783" y="15" width="183" height="263" filterUnits="userSpaceOnUse" color-interpolation-filters="sRGB">
<feFlood flood-opacity="0" result="BackgroundImageFix"/>
<feColorMatrix in="SourceAlpha" type="matrix" values="0 0 0 0 0 0 0 0 0 0 0 0 0 0 0 0 0 0 127 0" result="hardAlpha"/>
<feOffset dy="4"/>
<feGaussianBlur stdDeviation="2"/>
<feComposite in2="hardAlpha" operator="out"/>
<feColorMatrix type="matrix" values="0 0 0 0 0 0 0 0 0 0 0 0 0 0 0 0 0 0 0.25 0"/>
<feBlend mode="normal" in2="BackgroundImageFix" result="effect1_dropShadow_2_2524"/>
<feBlend mode="normal" in="SourceGraphic" in2="effect1_dropShadow_2_2524" result="shape"/>
</filter>
</defs>
</svg>
